<svg width="28" height="28" viewBox="0 0 28 28" fill="none" xmlns="http://www.w3.org/2000/svg">
<path d="M26.25 7.875C26.25 7.39175 25.8582 7 25.375 7H24.2635C23.329 7 22.559 6.31463 22.0554 5.52745C21.2721 4.30309 19.918 3.5 18.375 3.5C18.2134 3.5 18.0538 3.50881 17.8968 3.52599C14.7022 3.87554 11.7952 7 8.58153 7H2.625C2.14175 7 1.75 7.39175 1.75 7.875C1.75 8.35825 2.14175 8.75 2.625 8.75H8.58153C11.7952 8.75 14.7022 11.8745 17.8968 12.224C18.0538 12.2412 18.2134 12.25 18.375 12.25C19.918 12.25 21.2721 11.4469 22.0554 10.2226C22.559 9.43537 23.329 8.75 24.2635 8.75H25.375C25.8582 8.75 26.25 8.35825 26.25 7.875ZM18.375 10.5C16.8875 10.5 15.75 9.3625 15.75 7.875C15.75 6.3875 16.8875 5.25 18.375 5.25C19.8625 5.25 21 6.3875 21 7.875C21 9.3625 19.8625 10.5 18.375 10.5ZM1.75 20.125C1.75 20.6082 2.14175 21 2.625 21H3.73647C4.67096 21 5.44104 21.6854 5.94463 22.4726C6.72791 23.6969 8.08197 24.5 9.625 24.5C9.78661 24.5 9.94616 24.4912 10.1032 24.474C13.2978 24.1245 16.2048 21 19.4185 21H25.375C25.8582 21 26.25 20.6082 26.25 20.125C26.25 19.6418 25.8582 19.25 25.375 19.25H19.4185C16.2048 19.25 13.2978 16.1255 10.1032 15.776C9.94616 15.7588 9.78661 15.75 9.625 15.75C8.08197 15.75 6.72791 16.5531 5.94463 17.7774C5.44104 18.5646 4.67096 19.25 3.73647 19.25H2.625C2.14175 19.25 1.75 19.6418 1.75 20.125ZM9.625 17.5C11.1125 17.5 12.25 18.6375 12.25 20.125C12.25 21.6125 11.1125 22.75 9.625 22.75C8.1375 22.75 7 21.6125 7 20.125C7 18.6375 8.1375 17.5 9.625 17.5Z" fill="url(#paint0_radial_2792_95)"/>
<path d="M26.25 7.875C26.25 7.39175 25.8582 7 25.375 7H24.2635C23.329 7 22.559 6.31463 22.0554 5.52745C21.2721 4.30309 19.918 3.5 18.375 3.5C18.2134 3.5 18.0538 3.50881 17.8968 3.52599C14.7022 3.87554 11.7952 7 8.58153 7H2.625C2.14175 7 1.75 7.39175 1.75 7.875C1.75 8.35825 2.14175 8.75 2.625 8.75H8.58153C11.7952 8.75 14.7022 11.8745 17.8968 12.224C18.0538 12.2412 18.2134 12.25 18.375 12.25C19.918 12.25 21.2721 11.4469 22.0554 10.2226C22.559 9.43537 23.329 8.75 24.2635 8.75H25.375C25.8582 8.75 26.25 8.35825 26.25 7.875ZM18.375 10.5C16.8875 10.5 15.75 9.3625 15.75 7.875C15.75 6.3875 16.8875 5.25 18.375 5.25C19.8625 5.25 21 6.3875 21 7.875C21 9.3625 19.8625 10.5 18.375 10.5ZM1.75 20.125C1.75 20.6082 2.14175 21 2.625 21H3.73647C4.67096 21 5.44104 21.6854 5.94463 22.4726C6.72791 23.6969 8.08197 24.5 9.625 24.5C9.78661 24.5 9.94616 24.4912 10.1032 24.474C13.2978 24.1245 16.2048 21 19.4185 21H25.375C25.8582 21 26.25 20.6082 26.25 20.125C26.25 19.6418 25.8582 19.25 25.375 19.25H19.4185C16.2048 19.25 13.2978 16.1255 10.1032 15.776C9.94616 15.7588 9.78661 15.75 9.625 15.75C8.08197 15.75 6.72791 16.5531 5.94463 17.7774C5.44104 18.5646 4.67096 19.25 3.73647 19.25H2.625C2.14175 19.25 1.75 19.6418 1.75 20.125ZM9.625 17.5C11.1125 17.5 12.25 18.6375 12.25 20.125C12.25 21.6125 11.1125 22.75 9.625 22.75C8.1375 22.75 7 21.6125 7 20.125C7 18.6375 8.1375 17.5 9.625 17.5Z" fill="url(#paint1_linear_2792_95)"/>
<defs>
<radialGradient id="paint0_radial_2792_95" cx="0" cy="0" r="1" gradientUnits="userSpaceOnUse" gradientTransform="translate(1.97037 4.12479) rotate(39.6886) scale(31.0629 48.8547)">
<stop stop-color="white" stop-opacity="0.4"/>
<stop offset="1" stop-color="white" stop-opacity="0"/>
</radialGradient>
<linearGradient id="paint1_linear_2792_95" x1="14" y1="3.5" x2="20.3273" y2="26.9848" gradientUnits="userSpaceOnUse">
<stop stop-color="#A66FFF"/>
<stop offset="1" stop-color="#7B6FFF"/>
</linearGradient>
</defs>
</svg>
