<svg width="24" height="24" viewBox="0 0 24 24" fill="none" xmlns="http://www.w3.org/2000/svg">
<path d="M18.9999 11H7.82986L12.7099 6.12C13.0999 5.73 13.0999 5.09 12.7099 4.7C12.3199 4.31 11.6899 4.31 11.2999 4.7L4.70986 11.29C4.31986 11.68 4.31986 12.31 4.70986 12.7L11.2999 19.29C11.6899 19.68 12.3199 19.68 12.7099 19.29C13.0999 18.9 13.0999 18.27 12.7099 17.88L7.82986 13H18.9999C19.5499 13 19.9999 12.55 19.9999 12C19.9999 11.45 19.5499 11 18.9999 11Z" fill="url(#paint0_radial_2880_1425)"/>
<path d="M18.9999 11H7.82986L12.7099 6.12C13.0999 5.73 13.0999 5.09 12.7099 4.7C12.3199 4.31 11.6899 4.31 11.2999 4.7L4.70986 11.29C4.31986 11.68 4.31986 12.31 4.70986 12.7L11.2999 19.29C11.6899 19.68 12.3199 19.68 12.7099 19.29C13.0999 18.9 13.0999 18.27 12.7099 17.88L7.82986 13H18.9999C19.5499 13 19.9999 12.55 19.9999 12C19.9999 11.45 19.5499 11 18.9999 11Z" fill="url(#paint1_linear_2880_1425)"/>
<defs>
<radialGradient id="paint0_radial_2880_1425" cx="0" cy="0" r="1" gradientUnits="userSpaceOnUse" gradientTransform="translate(4.55752 4.85899) rotate(43.3158) scale(20.8955 33.3791)">
<stop stop-color="white" stop-opacity="0.4"/>
<stop offset="1" stop-color="white" stop-opacity="0"/>
</radialGradient>
<linearGradient id="paint1_linear_2880_1425" x1="12.2086" y1="4.4075" x2="17.3031" y2="21.0504" gradientUnits="userSpaceOnUse">
<stop stop-color="#A66FFF"/>
<stop offset="1" stop-color="#7B6FFF"/>
</linearGradient>
</defs>
</svg>
