<svg xmlns="http://www.w3.org/2000/svg" width="230" height="102" fill="none" viewBox="0 0 230 102"><g filter="url(#filter0_f_2781_36)"><rect width="150" height="22" x="40" y="40" fill="url(#paint0_radial_2781_36)" rx="11"/><rect width="150" height="22" x="40" y="40" fill="url(#paint1_linear_2781_36)" rx="11"/></g><rect width="180" height="46" x="25" y="9" fill="url(#paint2_radial_2781_36)" rx="23"/><rect width="180" height="46" x="25" y="9" fill="url(#paint3_linear_2781_36)" rx="23"/><path fill="#fff" d="M107.532 37H105.572L101.134 30.294V37H99.1741V27.214H101.134L105.572 33.934V27.214H107.532V37ZM111.149 28.81V31.26H114.439V32.814H111.149V35.404H114.859V37H109.189V27.214H114.859V28.81H111.149ZM122.212 37L120.098 33.71L118.18 37H115.968L119.048 32.072L115.926 27.228H118.18L120.294 30.504L122.198 27.228H124.41L121.344 32.142L124.466 37H122.212ZM132.328 27.228V28.81H129.724V37H127.764V28.81H125.16V27.228H132.328Z"/><defs><filter id="filter0_f_2781_36" width="230" height="102" x="0" y="0" color-interpolation-filters="sRGB" filterUnits="userSpaceOnUse"><feFlood flood-opacity="0" result="BackgroundImageFix"/><feBlend in="SourceGraphic" in2="BackgroundImageFix" mode="normal" result="shape"/><feGaussianBlur result="effect1_foregroundBlur_2781_36" stdDeviation="20"/></filter><radialGradient id="paint0_radial_2781_36" cx="0" cy="0" r="1" gradientTransform="translate(41.3492 40.6545) rotate(8.08206) scale(147.817 65.8492)" gradientUnits="userSpaceOnUse"><stop stop-color="#fff" stop-opacity=".4"/><stop offset="1" stop-color="#fff" stop-opacity="0"/></radialGradient><linearGradient id="paint1_linear_2781_36" x1="115" x2="116.214" y1="40" y2="66.333" gradientUnits="userSpaceOnUse"><stop stop-color="#A66FFF"/><stop offset="1" stop-color="#7B6FFF"/></linearGradient><radialGradient id="paint2_radial_2781_36" cx="0" cy="0" r="1" gradientTransform="translate(26.6191 10.3686) rotate(13.8974) scale(180.915 134.995)" gradientUnits="userSpaceOnUse"><stop stop-color="#fff" stop-opacity=".4"/><stop offset="1" stop-color="#fff" stop-opacity="0"/></radialGradient><linearGradient id="paint3_linear_2781_36" x1="115" x2="119.404" y1="9" y2="63.823" gradientUnits="userSpaceOnUse"><stop stop-color="#A66FFF"/><stop offset="1" stop-color="#7B6FFF"/></linearGradient></defs></svg>