<svg width="230" height="102" viewBox="0 0 230 102" fill="none" xmlns="http://www.w3.org/2000/svg">
<g filter="url(#filter0_f_2781_36)">
<rect x="40" y="40" width="150" height="22" rx="11" fill="url(#paint0_radial_2781_36)"/>
<rect x="40" y="40" width="150" height="22" rx="11" fill="url(#paint1_linear_2781_36)"/>
</g>
<rect x="25" y="9" width="180" height="46" rx="23" fill="url(#paint2_radial_2781_36)"/>
<rect x="25" y="9" width="180" height="46" rx="23" fill="url(#paint3_linear_2781_36)"/>
<path d="M107.532 37H105.572L101.134 30.294V37H99.1741V27.214H101.134L105.572 33.934V27.214H107.532V37ZM111.149 28.81V31.26H114.439V32.814H111.149V35.404H114.859V37H109.189V27.214H114.859V28.81H111.149ZM122.212 37L120.098 33.71L118.18 37H115.968L119.048 32.072L115.926 27.228H118.18L120.294 30.504L122.198 27.228H124.41L121.344 32.142L124.466 37H122.212ZM132.328 27.228V28.81H129.724V37H127.764V28.81H125.16V27.228H132.328Z" fill="white"/>
<defs>
<filter id="filter0_f_2781_36" x="0" y="0" width="230" height="102" filterUnits="userSpaceOnUse" color-interpolation-filters="sRGB">
<feFlood flood-opacity="0" result="BackgroundImageFix"/>
<feBlend mode="normal" in="SourceGraphic" in2="BackgroundImageFix" result="shape"/>
<feGaussianBlur stdDeviation="20" result="effect1_foregroundBlur_2781_36"/>
</filter>
<radialGradient id="paint0_radial_2781_36" cx="0" cy="0" r="1" gradientUnits="userSpaceOnUse" gradientTransform="translate(41.3492 40.6545) rotate(8.08206) scale(147.817 65.8492)">
<stop stop-color="white" stop-opacity="0.4"/>
<stop offset="1" stop-color="white" stop-opacity="0"/>
</radialGradient>
<linearGradient id="paint1_linear_2781_36" x1="115" y1="40" x2="116.214" y2="66.333" gradientUnits="userSpaceOnUse">
<stop stop-color="#A66FFF"/>
<stop offset="1" stop-color="#7B6FFF"/>
</linearGradient>
<radialGradient id="paint2_radial_2781_36" cx="0" cy="0" r="1" gradientUnits="userSpaceOnUse" gradientTransform="translate(26.6191 10.3686) rotate(13.8974) scale(180.915 134.995)">
<stop stop-color="white" stop-opacity="0.4"/>
<stop offset="1" stop-color="white" stop-opacity="0"/>
</radialGradient>
<linearGradient id="paint3_linear_2781_36" x1="115" y1="9" x2="119.404" y2="63.8232" gradientUnits="userSpaceOnUse">
<stop stop-color="#A66FFF"/>
<stop offset="1" stop-color="#7B6FFF"/>
</linearGradient>
</defs>
</svg>
