<svg xmlns="http://www.w3.org/2000/svg" width="290" height="102" fill="none" viewBox="0 0 290 102"><g filter="url(#filter0_f_2788_2)"><rect width="210" height="22" x="40" y="40" fill="#fff" rx="11"/></g><rect width="240" height="43" x="25" y="17" fill="#fff" rx="21.5"/><path fill="#9D6FFF" d="M83.8713 43.084C83.2873 43.084 82.7593 42.984 82.2873 42.784C81.8233 42.584 81.4553 42.296 81.1833 41.92C80.9113 41.544 80.7713 41.1 80.7633 40.588H82.5633C82.5873 40.932 82.7073 41.204 82.9233 41.404C83.1473 41.604 83.4513 41.704 83.8353 41.704C84.2273 41.704 84.5353 41.612 84.7593 41.428C84.9833 41.236 85.0953 40.988 85.0953 40.684C85.0953 40.436 85.0193 40.232 84.8673 40.072C84.7153 39.912 84.5233 39.788 84.2913 39.7C84.0673 39.604 83.7553 39.5 83.3553 39.388C82.8113 39.228 82.3673 39.072 82.0233 38.92C81.6873 38.76 81.3953 38.524 81.1473 38.212C80.9073 37.892 80.7873 37.468 80.7873 36.94C80.7873 36.444 80.9113 36.012 81.1593 35.644C81.4073 35.276 81.7553 34.996 82.2033 34.804C82.6513 34.604 83.1633 34.504 83.7393 34.504C84.6033 34.504 85.3033 34.716 85.8393 35.14C86.3833 35.556 86.6833 36.14 86.7393 36.892H84.8913C84.8753 36.604 84.7513 36.368 84.5193 36.184C84.2953 35.992 83.9953 35.896 83.6193 35.896C83.2913 35.896 83.0273 35.98 82.8273 36.148C82.6353 36.316 82.5393 36.56 82.5393 36.88C82.5393 37.104 82.6113 37.292 82.7553 37.444C82.9073 37.588 83.0913 37.708 83.3073 37.804C83.5313 37.892 83.8433 37.996 84.2433 38.116C84.7873 38.276 85.2313 38.436 85.5753 38.596C85.9193 38.756 86.2153 38.996 86.4633 39.316C86.7113 39.636 86.8353 40.056 86.8353 40.576C86.8353 41.024 86.7193 41.44 86.4873 41.824C86.2553 42.208 85.9153 42.516 85.4673 42.748C85.0193 42.972 84.4873 43.084 83.8713 43.084ZM93.7518 34.624V35.98H91.5198V43H89.8398V35.98H87.6078V34.624H93.7518ZM99.8736 41.404H96.5376L95.9856 43H94.2216L97.2336 34.612H99.1896L102.202 43H100.426L99.8736 41.404ZM99.4176 40.06L98.2056 36.556L96.9936 40.06H99.4176ZM107.407 43L105.559 39.736H104.767V43H103.087V34.624H106.231C106.879 34.624 107.431 34.74 107.887 34.972C108.343 35.196 108.683 35.504 108.907 35.896C109.139 36.28 109.255 36.712 109.255 37.192C109.255 37.744 109.095 38.244 108.775 38.692C108.455 39.132 107.979 39.436 107.347 39.604L109.351 43H107.407ZM104.767 38.476H106.171C106.627 38.476 106.967 38.368 107.191 38.152C107.415 37.928 107.527 37.62 107.527 37.228C107.527 36.844 107.415 36.548 107.191 36.34C106.967 36.124 106.627 36.016 106.171 36.016H104.767V38.476ZM116.235 34.624V35.98H114.003V43H112.323V35.98H110.091V34.624H116.235ZM119.432 38.8C119.432 37.976 119.616 37.24 119.984 36.592C120.36 35.936 120.868 35.428 121.508 35.068C122.156 34.7 122.88 34.516 123.68 34.516C124.616 34.516 125.436 34.756 126.14 35.236C126.844 35.716 127.336 36.38 127.616 37.228H125.684C125.492 36.828 125.22 36.528 124.868 36.328C124.524 36.128 124.124 36.028 123.668 36.028C123.18 36.028 122.744 36.144 122.36 36.376C121.984 36.6 121.688 36.92 121.472 37.336C121.264 37.752 121.16 38.24 121.16 38.8C121.16 39.352 121.264 39.84 121.472 40.264C121.688 40.68 121.984 41.004 122.36 41.236C122.744 41.46 123.18 41.572 123.668 41.572C124.124 41.572 124.524 41.472 124.868 41.272C125.22 41.064 125.492 40.76 125.684 40.36H127.616C127.336 41.216 126.844 41.884 126.14 42.364C125.444 42.836 124.624 43.072 123.68 43.072C122.88 43.072 122.156 42.892 121.508 42.532C120.868 42.164 120.36 41.656 119.984 41.008C119.616 40.36 119.432 39.624 119.432 38.8ZM132.699 43.084C131.915 43.084 131.195 42.9 130.539 42.532C129.883 42.164 129.363 41.656 128.979 41.008C128.595 40.352 128.403 39.612 128.403 38.788C128.403 37.972 128.595 37.24 128.979 36.592C129.363 35.936 129.883 35.424 130.539 35.056C131.195 34.688 131.915 34.504 132.699 34.504C133.491 34.504 134.211 34.688 134.859 35.056C135.515 35.424 136.031 35.936 136.407 36.592C136.791 37.24 136.983 37.972 136.983 38.788C136.983 39.612 136.791 40.352 136.407 41.008C136.031 41.656 135.515 42.164 134.859 42.532C134.203 42.9 133.483 43.084 132.699 43.084ZM132.699 41.584C133.203 41.584 133.647 41.472 134.031 41.248C134.415 41.016 134.715 40.688 134.931 40.264C135.147 39.84 135.255 39.348 135.255 38.788C135.255 38.228 135.147 37.74 134.931 37.324C134.715 36.9 134.415 36.576 134.031 36.352C133.647 36.128 133.203 36.016 132.699 36.016C132.195 36.016 131.747 36.128 131.355 36.352C130.971 36.576 130.671 36.9 130.455 37.324C130.239 37.74 130.131 38.228 130.131 38.788C130.131 39.348 130.239 39.84 130.455 40.264C130.671 40.688 130.971 41.016 131.355 41.248C131.747 41.472 132.195 41.584 132.699 41.584ZM145.157 43H143.477L139.673 37.252V43H137.993V34.612H139.673L143.477 40.372V34.612H145.157V43ZM154.101 34.624L151.029 43H148.989L145.917 34.624H147.717L150.021 41.284L152.313 34.624H154.101ZM156.548 35.98V38.08H159.368V39.412H156.548V41.632H159.728V43H154.868V34.612H159.728V35.98H156.548ZM165.335 43L163.487 39.736H162.695V43H161.015V34.624H164.159C164.807 34.624 165.359 34.74 165.815 34.972C166.271 35.196 166.611 35.504 166.835 35.896C167.067 36.28 167.183 36.712 167.183 37.192C167.183 37.744 167.023 38.244 166.703 38.692C166.383 39.132 165.907 39.436 165.275 39.604L167.279 43H165.335ZM162.695 38.476H164.099C164.555 38.476 164.895 38.368 165.119 38.152C165.343 37.928 165.455 37.62 165.455 37.228C165.455 36.844 165.343 36.548 165.119 36.34C164.895 36.124 164.555 36.016 164.099 36.016H162.695V38.476ZM171.355 43.084C170.771 43.084 170.243 42.984 169.771 42.784C169.307 42.584 168.939 42.296 168.667 41.92C168.395 41.544 168.255 41.1 168.247 40.588H170.047C170.071 40.932 170.191 41.204 170.407 41.404C170.631 41.604 170.935 41.704 171.319 41.704C171.711 41.704 172.019 41.612 172.243 41.428C172.467 41.236 172.579 40.988 172.579 40.684C172.579 40.436 172.503 40.232 172.351 40.072C172.199 39.912 172.007 39.788 171.775 39.7C171.551 39.604 171.239 39.5 170.839 39.388C170.295 39.228 169.851 39.072 169.507 38.92C169.171 38.76 168.879 38.524 168.631 38.212C168.391 37.892 168.271 37.468 168.271 36.94C168.271 36.444 168.395 36.012 168.643 35.644C168.891 35.276 169.239 34.996 169.687 34.804C170.135 34.604 170.647 34.504 171.223 34.504C172.087 34.504 172.787 34.716 173.323 35.14C173.867 35.556 174.167 36.14 174.223 36.892H172.375C172.359 36.604 172.235 36.368 172.003 36.184C171.779 35.992 171.479 35.896 171.103 35.896C170.775 35.896 170.511 35.98 170.311 36.148C170.119 36.316 170.023 36.56 170.023 36.88C170.023 37.104 170.095 37.292 170.239 37.444C170.391 37.588 170.575 37.708 170.791 37.804C171.015 37.892 171.327 37.996 171.727 38.116C172.271 38.276 172.715 38.436 173.059 38.596C173.403 38.756 173.699 38.996 173.947 39.316C174.195 39.636 174.319 40.056 174.319 40.576C174.319 41.024 174.203 41.44 173.971 41.824C173.739 42.208 173.399 42.516 172.951 42.748C172.503 42.972 171.971 43.084 171.355 43.084ZM180.671 41.404H177.335L176.783 43H175.019L178.031 34.612H179.987L182.999 43H181.223L180.671 41.404ZM180.215 40.06L179.003 36.556L177.791 40.06H180.215ZM189.585 34.624V35.98H187.353V43H185.673V35.98H183.441V34.624H189.585ZM192.251 34.624V43H190.571V34.624H192.251ZM197.559 43.084C196.775 43.084 196.055 42.9 195.399 42.532C194.743 42.164 194.223 41.656 193.839 41.008C193.455 40.352 193.263 39.612 193.263 38.788C193.263 37.972 193.455 37.24 193.839 36.592C194.223 35.936 194.743 35.424 195.399 35.056C196.055 34.688 196.775 34.504 197.559 34.504C198.351 34.504 199.071 34.688 199.719 35.056C200.375 35.424 200.891 35.936 201.267 36.592C201.651 37.24 201.843 37.972 201.843 38.788C201.843 39.612 201.651 40.352 201.267 41.008C200.891 41.656 200.375 42.164 199.719 42.532C199.063 42.9 198.343 43.084 197.559 43.084ZM197.559 41.584C198.063 41.584 198.507 41.472 198.891 41.248C199.275 41.016 199.575 40.688 199.791 40.264C200.007 39.84 200.115 39.348 200.115 38.788C200.115 38.228 200.007 37.74 199.791 37.324C199.575 36.9 199.275 36.576 198.891 36.352C198.507 36.128 198.063 36.016 197.559 36.016C197.055 36.016 196.607 36.128 196.215 36.352C195.831 36.576 195.531 36.9 195.315 37.324C195.099 37.74 194.991 38.228 194.991 38.788C194.991 39.348 195.099 39.84 195.315 40.264C195.531 40.688 195.831 41.016 196.215 41.248C196.607 41.472 197.055 41.584 197.559 41.584ZM210.016 43H208.336L204.532 37.252V43H202.852V34.612H204.532L208.336 40.372V34.612H210.016V43Z"/><defs><filter id="filter0_f_2788_2" width="290" height="102" x="0" y="0" color-interpolation-filters="sRGB" filterUnits="userSpaceOnUse"><feFlood flood-opacity="0" result="BackgroundImageFix"/><feBlend in="SourceGraphic" in2="BackgroundImageFix" mode="normal" result="shape"/><feGaussianBlur result="effect1_foregroundBlur_2788_2" stdDeviation="20"/></filter></defs></svg>