<svg xmlns="http://www.w3.org/2000/svg" width="241" height="33" fill="none" viewBox="0 0 241 33"><path fill="url(#paint0_radial_1_884)" d="M24.7648 2.684V32H18.8848V19.526H6.32679V32H0.44679V2.684H6.32679V14.738H18.8848V2.684H24.7648ZM52.5923 19.862C52.5923 20.702 52.5363 21.458 52.4243 22.13H35.4143C35.5543 23.81 36.1423 25.126 37.1783 26.078C38.2143 27.03 39.4883 27.506 41.0003 27.506C43.1843 27.506 44.7383 26.568 45.6623 24.692H52.0043C51.3323 26.932 50.0443 28.78 48.1403 30.236C46.2363 31.664 43.8983 32.378 41.1263 32.378C38.8863 32.378 36.8703 31.888 35.0783 30.908C33.3143 29.9 31.9283 28.486 30.9203 26.666C29.9403 24.846 29.4503 22.746 29.4503 20.366C29.4503 17.958 29.9403 15.844 30.9203 14.024C31.9003 12.204 33.2723 10.804 35.0363 9.824C36.8003 8.844 38.8303 8.354 41.1263 8.354C43.3383 8.354 45.3123 8.83 47.0483 9.782C48.8123 10.734 50.1703 12.092 51.1223 13.856C52.1023 15.592 52.5923 17.594 52.5923 19.862ZM46.5023 18.182C46.4743 16.67 45.9283 15.466 44.8643 14.57C43.8003 13.646 42.4983 13.184 40.9583 13.184C39.5023 13.184 38.2703 13.632 37.2623 14.528C36.2823 15.396 35.6803 16.614 35.4563 18.182H46.5023ZM63.1741 0.92V32H57.2941V0.92H63.1741ZM75.2736 0.92V32H69.3936V0.92H75.2736ZM91.825 32.378C89.585 32.378 87.569 31.888 85.777 30.908C83.985 29.9 82.571 28.486 81.535 26.666C80.527 24.846 80.023 22.746 80.023 20.366C80.023 17.986 80.541 15.886 81.577 14.066C82.641 12.246 84.083 10.846 85.903 9.866C87.723 8.858 89.753 8.354 91.993 8.354C94.233 8.354 96.263 8.858 98.083 9.866C99.903 10.846 101.331 12.246 102.367 14.066C103.431 15.886 103.963 17.986 103.963 20.366C103.963 22.746 103.417 24.846 102.325 26.666C101.261 28.486 99.805 29.9 97.957 30.908C96.137 31.888 94.093 32.378 91.825 32.378ZM91.825 27.254C92.889 27.254 93.883 27.002 94.807 26.498C95.759 25.966 96.515 25.182 97.075 24.146C97.635 23.11 97.915 21.85 97.915 20.366C97.915 18.154 97.327 16.46 96.151 15.284C95.003 14.08 93.589 13.478 91.909 13.478C90.229 13.478 88.815 14.08 87.667 15.284C86.547 16.46 85.987 18.154 85.987 20.366C85.987 22.578 86.533 24.286 87.625 25.49C88.745 26.666 90.145 27.254 91.825 27.254ZM125.95 13.562V24.818C125.95 25.602 126.132 26.176 126.496 26.54C126.888 26.876 127.532 27.044 128.428 27.044H131.158V32H127.462C122.506 32 120.028 29.592 120.028 24.776V13.562H117.256V8.732H120.028V2.978H125.95V8.732H131.158V13.562H125.95ZM148.901 8.396C150.665 8.396 152.233 8.788 153.605 9.572C154.977 10.328 156.041 11.462 156.797 12.974C157.581 14.458 157.973 16.25 157.973 18.35V32H152.093V19.148C152.093 17.3 151.631 15.886 150.707 14.906C149.783 13.898 148.523 13.394 146.927 13.394C145.303 13.394 144.015 13.898 143.063 14.906C142.139 15.886 141.677 17.3 141.677 19.148V32H135.797V0.92H141.677V11.63C142.433 10.622 143.441 9.838 144.701 9.278C145.961 8.69 147.361 8.396 148.901 8.396ZM185.605 19.862C185.605 20.702 185.549 21.458 185.437 22.13H168.427C168.567 23.81 169.155 25.126 170.191 26.078C171.227 27.03 172.501 27.506 174.013 27.506C176.197 27.506 177.751 26.568 178.675 24.692H185.017C184.345 26.932 183.057 28.78 181.153 30.236C179.249 31.664 176.911 32.378 174.139 32.378C171.899 32.378 169.883 31.888 168.091 30.908C166.327 29.9 164.941 28.486 163.933 26.666C162.953 24.846 162.463 22.746 162.463 20.366C162.463 17.958 162.953 15.844 163.933 14.024C164.913 12.204 166.285 10.804 168.049 9.824C169.813 8.844 171.843 8.354 174.139 8.354C176.351 8.354 178.325 8.83 180.061 9.782C181.825 10.734 183.183 12.092 184.135 13.856C185.115 15.592 185.605 17.594 185.605 19.862ZM179.515 18.182C179.487 16.67 178.941 15.466 177.877 14.57C176.813 13.646 175.511 13.184 173.971 13.184C172.515 13.184 171.283 13.632 170.275 14.528C169.295 15.396 168.693 16.614 168.469 18.182H179.515ZM196.187 12.344C196.943 11.112 197.923 10.146 199.127 9.446C200.359 8.746 201.759 8.396 203.327 8.396V14.57H201.773C199.925 14.57 198.525 15.004 197.573 15.872C196.649 16.74 196.187 18.252 196.187 20.408V32H190.307V8.732H196.187V12.344ZM229.327 19.862C229.327 20.702 229.271 21.458 229.159 22.13H212.149C212.289 23.81 212.877 25.126 213.913 26.078C214.949 27.03 216.223 27.506 217.735 27.506C219.919 27.506 221.473 26.568 222.397 24.692H228.739C228.067 26.932 226.779 28.78 224.875 30.236C222.971 31.664 220.633 32.378 217.861 32.378C215.621 32.378 213.605 31.888 211.813 30.908C210.049 29.9 208.663 28.486 207.655 26.666C206.675 24.846 206.185 22.746 206.185 20.366C206.185 17.958 206.675 15.844 207.655 14.024C208.635 12.204 210.007 10.804 211.771 9.824C213.535 8.844 215.565 8.354 217.861 8.354C220.073 8.354 222.047 8.83 223.783 9.782C225.547 10.734 226.905 12.092 227.857 13.856C228.837 15.592 229.327 17.594 229.327 19.862ZM223.237 18.182C223.209 16.67 222.663 15.466 221.599 14.57C220.535 13.646 219.233 13.184 217.693 13.184C216.237 13.184 215.005 13.632 213.997 14.528C213.017 15.396 212.415 16.614 212.191 18.182H223.237ZM236.633 32.294C235.569 32.294 234.687 31.972 233.987 31.328C233.315 30.656 232.979 29.83 232.979 28.85C232.979 27.87 233.315 27.058 233.987 26.414C234.687 25.742 235.569 25.406 236.633 25.406C237.669 25.406 238.523 25.742 239.195 26.414C239.867 27.058 240.203 27.87 240.203 28.85C240.203 29.83 239.867 30.656 239.195 31.328C238.523 31.972 237.669 32.294 236.633 32.294Z"/><path fill="url(#paint1_linear_1_884)" d="M24.7648 2.684V32H18.8848V19.526H6.32679V32H0.44679V2.684H6.32679V14.738H18.8848V2.684H24.7648ZM52.5923 19.862C52.5923 20.702 52.5363 21.458 52.4243 22.13H35.4143C35.5543 23.81 36.1423 25.126 37.1783 26.078C38.2143 27.03 39.4883 27.506 41.0003 27.506C43.1843 27.506 44.7383 26.568 45.6623 24.692H52.0043C51.3323 26.932 50.0443 28.78 48.1403 30.236C46.2363 31.664 43.8983 32.378 41.1263 32.378C38.8863 32.378 36.8703 31.888 35.0783 30.908C33.3143 29.9 31.9283 28.486 30.9203 26.666C29.9403 24.846 29.4503 22.746 29.4503 20.366C29.4503 17.958 29.9403 15.844 30.9203 14.024C31.9003 12.204 33.2723 10.804 35.0363 9.824C36.8003 8.844 38.8303 8.354 41.1263 8.354C43.3383 8.354 45.3123 8.83 47.0483 9.782C48.8123 10.734 50.1703 12.092 51.1223 13.856C52.1023 15.592 52.5923 17.594 52.5923 19.862ZM46.5023 18.182C46.4743 16.67 45.9283 15.466 44.8643 14.57C43.8003 13.646 42.4983 13.184 40.9583 13.184C39.5023 13.184 38.2703 13.632 37.2623 14.528C36.2823 15.396 35.6803 16.614 35.4563 18.182H46.5023ZM63.1741 0.92V32H57.2941V0.92H63.1741ZM75.2736 0.92V32H69.3936V0.92H75.2736ZM91.825 32.378C89.585 32.378 87.569 31.888 85.777 30.908C83.985 29.9 82.571 28.486 81.535 26.666C80.527 24.846 80.023 22.746 80.023 20.366C80.023 17.986 80.541 15.886 81.577 14.066C82.641 12.246 84.083 10.846 85.903 9.866C87.723 8.858 89.753 8.354 91.993 8.354C94.233 8.354 96.263 8.858 98.083 9.866C99.903 10.846 101.331 12.246 102.367 14.066C103.431 15.886 103.963 17.986 103.963 20.366C103.963 22.746 103.417 24.846 102.325 26.666C101.261 28.486 99.805 29.9 97.957 30.908C96.137 31.888 94.093 32.378 91.825 32.378ZM91.825 27.254C92.889 27.254 93.883 27.002 94.807 26.498C95.759 25.966 96.515 25.182 97.075 24.146C97.635 23.11 97.915 21.85 97.915 20.366C97.915 18.154 97.327 16.46 96.151 15.284C95.003 14.08 93.589 13.478 91.909 13.478C90.229 13.478 88.815 14.08 87.667 15.284C86.547 16.46 85.987 18.154 85.987 20.366C85.987 22.578 86.533 24.286 87.625 25.49C88.745 26.666 90.145 27.254 91.825 27.254ZM125.95 13.562V24.818C125.95 25.602 126.132 26.176 126.496 26.54C126.888 26.876 127.532 27.044 128.428 27.044H131.158V32H127.462C122.506 32 120.028 29.592 120.028 24.776V13.562H117.256V8.732H120.028V2.978H125.95V8.732H131.158V13.562H125.95ZM148.901 8.396C150.665 8.396 152.233 8.788 153.605 9.572C154.977 10.328 156.041 11.462 156.797 12.974C157.581 14.458 157.973 16.25 157.973 18.35V32H152.093V19.148C152.093 17.3 151.631 15.886 150.707 14.906C149.783 13.898 148.523 13.394 146.927 13.394C145.303 13.394 144.015 13.898 143.063 14.906C142.139 15.886 141.677 17.3 141.677 19.148V32H135.797V0.92H141.677V11.63C142.433 10.622 143.441 9.838 144.701 9.278C145.961 8.69 147.361 8.396 148.901 8.396ZM185.605 19.862C185.605 20.702 185.549 21.458 185.437 22.13H168.427C168.567 23.81 169.155 25.126 170.191 26.078C171.227 27.03 172.501 27.506 174.013 27.506C176.197 27.506 177.751 26.568 178.675 24.692H185.017C184.345 26.932 183.057 28.78 181.153 30.236C179.249 31.664 176.911 32.378 174.139 32.378C171.899 32.378 169.883 31.888 168.091 30.908C166.327 29.9 164.941 28.486 163.933 26.666C162.953 24.846 162.463 22.746 162.463 20.366C162.463 17.958 162.953 15.844 163.933 14.024C164.913 12.204 166.285 10.804 168.049 9.824C169.813 8.844 171.843 8.354 174.139 8.354C176.351 8.354 178.325 8.83 180.061 9.782C181.825 10.734 183.183 12.092 184.135 13.856C185.115 15.592 185.605 17.594 185.605 19.862ZM179.515 18.182C179.487 16.67 178.941 15.466 177.877 14.57C176.813 13.646 175.511 13.184 173.971 13.184C172.515 13.184 171.283 13.632 170.275 14.528C169.295 15.396 168.693 16.614 168.469 18.182H179.515ZM196.187 12.344C196.943 11.112 197.923 10.146 199.127 9.446C200.359 8.746 201.759 8.396 203.327 8.396V14.57H201.773C199.925 14.57 198.525 15.004 197.573 15.872C196.649 16.74 196.187 18.252 196.187 20.408V32H190.307V8.732H196.187V12.344ZM229.327 19.862C229.327 20.702 229.271 21.458 229.159 22.13H212.149C212.289 23.81 212.877 25.126 213.913 26.078C214.949 27.03 216.223 27.506 217.735 27.506C219.919 27.506 221.473 26.568 222.397 24.692H228.739C228.067 26.932 226.779 28.78 224.875 30.236C222.971 31.664 220.633 32.378 217.861 32.378C215.621 32.378 213.605 31.888 211.813 30.908C210.049 29.9 208.663 28.486 207.655 26.666C206.675 24.846 206.185 22.746 206.185 20.366C206.185 17.958 206.675 15.844 207.655 14.024C208.635 12.204 210.007 10.804 211.771 9.824C213.535 8.844 215.565 8.354 217.861 8.354C220.073 8.354 222.047 8.83 223.783 9.782C225.547 10.734 226.905 12.092 227.857 13.856C228.837 15.592 229.327 17.594 229.327 19.862ZM223.237 18.182C223.209 16.67 222.663 15.466 221.599 14.57C220.535 13.646 219.233 13.184 217.693 13.184C216.237 13.184 215.005 13.632 213.997 14.528C213.017 15.396 212.415 16.614 212.191 18.182H223.237ZM236.633 32.294C235.569 32.294 234.687 31.972 233.987 31.328C233.315 30.656 232.979 29.83 232.979 28.85C232.979 27.87 233.315 27.058 233.987 26.414C234.687 25.742 235.569 25.406 236.633 25.406C237.669 25.406 238.523 25.742 239.195 26.414C239.867 27.058 240.203 27.87 240.203 28.85C240.203 29.83 239.867 30.656 239.195 31.328C238.523 31.972 237.669 32.294 236.633 32.294Z"/><defs><radialGradient id="paint0_radial_1_884" cx="0" cy="0" r="1" gradientTransform="translate(-0.787291 -10.2744) rotate(12.8588) scale(246.187 170.947)" gradientUnits="userSpaceOnUse"><stop stop-color="#fff" stop-opacity=".4"/><stop offset="1" stop-color="#fff" stop-opacity="0"/></radialGradient><linearGradient id="paint1_linear_1_884" x1="120" x2="125.128" y1="-12" y2="57.191" gradientUnits="userSpaceOnUse"><stop stop-color="#A66FFF"/><stop offset="1" stop-color="#7B6FFF"/></linearGradient></defs></svg>