<svg width="162" height="51" viewBox="0 0 162 51" fill="none" xmlns="http://www.w3.org/2000/svg">
<path d="M100.291 12.8787L97.7326 21.5473L102.243 15.4858L133.677 26.1038L100.291 12.8787Z" fill="url(#paint0_radial_2922_61)"/>
<path d="M100.291 12.8787L97.7326 21.5473L102.243 15.4858L133.677 26.1038L100.291 12.8787Z" fill="url(#paint1_linear_2922_61)"/>
<path d="M97.7333 21.547L133.218 26.0085L102.244 15.4856L97.7333 21.547Z" fill="url(#paint2_radial_2922_61)"/>
<path d="M97.7333 21.547L133.218 26.0085L102.244 15.4856L97.7333 21.547Z" fill="url(#paint3_linear_2922_61)"/>
<path d="M100.291 12.8787L133.677 26.1038L95.2337 6.75542L100.291 12.8787Z" fill="url(#paint4_radial_2922_61)"/>
<path d="M100.291 12.8787L133.677 26.1038L95.2337 6.75542L100.291 12.8787Z" fill="url(#paint5_linear_2922_61)"/>
<path d="M106.876 21.8088L133.677 26.1038L102.243 15.4858L106.876 21.8088Z" fill="url(#paint6_radial_2922_61)"/>
<path d="M106.876 21.8088L133.677 26.1038L102.243 15.4858L106.876 21.8088Z" fill="url(#paint7_linear_2922_61)"/>
<path d="M28.9634 42V25.2H32.0354L39.9314 37.032V25.2H43.0034V42H39.9314L32.0354 30.192V42H28.9634ZM51.8073 42.288C50.6073 42.288 49.5433 42.032 48.6153 41.52C47.6873 41.008 46.9593 40.288 46.4313 39.36C45.9033 38.432 45.6393 37.36 45.6393 36.144C45.6393 34.912 45.8953 33.816 46.4073 32.856C46.9353 31.896 47.6553 31.152 48.5673 30.624C49.4953 30.08 50.5833 29.808 51.8313 29.808C52.9993 29.808 54.0313 30.064 54.9273 30.576C55.8233 31.088 56.5193 31.792 57.0153 32.688C57.5273 33.568 57.7833 34.552 57.7833 35.64C57.7833 35.816 57.7753 36 57.7593 36.192C57.7593 36.384 57.7513 36.584 57.7353 36.792H48.6873C48.7513 37.72 49.0713 38.448 49.6473 38.976C50.2393 39.504 50.9513 39.768 51.7833 39.768C52.4073 39.768 52.9273 39.632 53.3433 39.36C53.7753 39.072 54.0953 38.704 54.3033 38.256H57.4233C57.1993 39.008 56.8233 39.696 56.2953 40.32C55.7833 40.928 55.1433 41.408 54.3753 41.76C53.6233 42.112 52.7673 42.288 51.8073 42.288ZM51.8313 32.304C51.0793 32.304 50.4153 32.52 49.8393 32.952C49.2633 33.368 48.8953 34.008 48.7353 34.872H54.6633C54.6153 34.088 54.3273 33.464 53.7993 33C53.2713 32.536 52.6153 32.304 51.8313 32.304ZM58.2537 42L62.5737 36.048L58.2537 30.096H61.5417L64.5657 34.32L67.5657 30.096H70.8777L66.5337 36.048L70.8777 42H67.5657L64.5657 37.776L61.5417 42H58.2537ZM77.9738 42C76.7258 42 75.7258 41.696 74.9738 41.088C74.2218 40.48 73.8458 39.4 73.8458 37.848V32.664H71.8058V30.096H73.8458L74.2058 26.904H76.9178V30.096H80.1338V32.664H76.9178V37.872C76.9178 38.448 77.0378 38.848 77.2778 39.072C77.5338 39.28 77.9658 39.384 78.5738 39.384H80.0618V42H77.9738ZM88.4144 42.288C87.1824 42.288 86.0944 42.08 85.1504 41.664C84.2064 41.232 83.4624 40.624 82.9184 39.84C82.3744 39.04 82.0944 38.072 82.0784 36.936H85.3184C85.3504 37.72 85.6304 38.384 86.1584 38.928C86.7024 39.456 87.4464 39.72 88.3904 39.72C89.2064 39.72 89.8544 39.528 90.3344 39.144C90.8144 38.744 91.0544 38.216 91.0544 37.56C91.0544 36.872 90.8384 36.336 90.4064 35.952C89.9904 35.568 89.4304 35.256 88.7264 35.016C88.0224 34.776 87.2704 34.52 86.4704 34.248C85.1744 33.8 84.1824 33.224 83.4944 32.52C82.8224 31.816 82.4864 30.88 82.4864 29.712C82.4704 28.72 82.7024 27.872 83.1824 27.168C83.6784 26.448 84.3504 25.896 85.1984 25.512C86.0464 25.112 87.0224 24.912 88.1264 24.912C89.2464 24.912 90.2304 25.112 91.0784 25.512C91.9424 25.912 92.6144 26.472 93.0944 27.192C93.5904 27.912 93.8544 28.768 93.8864 29.76H90.5984C90.5824 29.168 90.3504 28.648 89.9024 28.2C89.4704 27.736 88.8624 27.504 88.0784 27.504C87.4064 27.488 86.8384 27.656 86.3744 28.008C85.9264 28.344 85.7024 28.84 85.7024 29.496C85.7024 30.056 85.8784 30.504 86.2304 30.84C86.5824 31.16 87.0624 31.432 87.6704 31.656C88.2784 31.88 88.9744 32.12 89.7584 32.376C90.5904 32.664 91.3504 33 92.0384 33.384C92.7264 33.768 93.2784 34.28 93.6944 34.92C94.1104 35.544 94.3184 36.352 94.3184 37.344C94.3184 38.224 94.0944 39.04 93.6464 39.792C93.1984 40.544 92.5344 41.152 91.6544 41.616C90.7744 42.064 89.6944 42.288 88.4144 42.288ZM102.066 42C100.818 42 99.8177 41.696 99.0657 41.088C98.3137 40.48 97.9377 39.4 97.9377 37.848V32.664H95.8977V30.096H97.9377L98.2977 26.904H101.01V30.096H104.226V32.664H101.01V37.872C101.01 38.448 101.13 38.848 101.37 39.072C101.626 39.28 102.058 39.384 102.666 39.384H104.154V42H102.066ZM112.178 42.288C110.978 42.288 109.914 42.032 108.986 41.52C108.058 41.008 107.33 40.288 106.802 39.36C106.274 38.432 106.01 37.36 106.01 36.144C106.01 34.912 106.266 33.816 106.778 32.856C107.306 31.896 108.026 31.152 108.938 30.624C109.866 30.08 110.954 29.808 112.202 29.808C113.37 29.808 114.402 30.064 115.298 30.576C116.194 31.088 116.89 31.792 117.386 32.688C117.898 33.568 118.154 34.552 118.154 35.64C118.154 35.816 118.146 36 118.13 36.192C118.13 36.384 118.122 36.584 118.106 36.792H109.058C109.122 37.72 109.442 38.448 110.018 38.976C110.61 39.504 111.322 39.768 112.154 39.768C112.778 39.768 113.298 39.632 113.714 39.36C114.146 39.072 114.466 38.704 114.674 38.256H117.794C117.57 39.008 117.194 39.696 116.666 40.32C116.154 40.928 115.514 41.408 114.746 41.76C113.994 42.112 113.138 42.288 112.178 42.288ZM112.202 32.304C111.45 32.304 110.786 32.52 110.21 32.952C109.634 33.368 109.266 34.008 109.106 34.872H115.034C114.986 34.088 114.698 33.464 114.17 33C113.642 32.536 112.986 32.304 112.202 32.304ZM120.572 47.28V30.096H123.308L123.644 31.8C124.028 31.272 124.532 30.808 125.156 30.408C125.796 30.008 126.62 29.808 127.628 29.808C128.748 29.808 129.748 30.08 130.628 30.624C131.508 31.168 132.204 31.912 132.716 32.856C133.228 33.8 133.484 34.872 133.484 36.072C133.484 37.272 133.228 38.344 132.716 39.288C132.204 40.216 131.508 40.952 130.628 41.496C129.748 42.024 128.748 42.288 127.628 42.288C126.732 42.288 125.948 42.12 125.276 41.784C124.604 41.448 124.06 40.976 123.644 40.368V47.28H120.572ZM126.98 39.6C127.956 39.6 128.764 39.272 129.404 38.616C130.044 37.96 130.364 37.112 130.364 36.072C130.364 35.032 130.044 34.176 129.404 33.504C128.764 32.832 127.956 32.496 126.98 32.496C125.988 32.496 125.172 32.832 124.532 33.504C123.908 34.16 123.596 35.008 123.596 36.048C123.596 37.088 123.908 37.944 124.532 38.616C125.172 39.272 125.988 39.6 126.98 39.6Z" fill="#313373"/>
<defs>
<radialGradient id="paint0_radial_2922_61" cx="0" cy="0" r="1" gradientUnits="userSpaceOnUse" gradientTransform="translate(133.09 26.3485) rotate(-169.473) scale(37.9207 49.9704)">
<stop stop-color="white" stop-opacity="0.4"/>
<stop offset="1" stop-color="white" stop-opacity="0"/>
</radialGradient>
<linearGradient id="paint1_linear_2922_61" x1="120.166" y1="15.4545" x2="103.778" y2="30.2488" gradientUnits="userSpaceOnUse">
<stop stop-color="#A66FFF"/>
<stop offset="1" stop-color="#7B6FFF"/>
</linearGradient>
<radialGradient id="paint2_radial_2922_61" cx="0" cy="0" r="1" gradientUnits="userSpaceOnUse" gradientTransform="translate(132.66 26.2682) rotate(-171.851) scale(34.7781 48.2891)">
<stop stop-color="white" stop-opacity="0.4"/>
<stop offset="1" stop-color="white" stop-opacity="0"/>
</radialGradient>
<linearGradient id="paint3_linear_2922_61" x1="121.107" y1="16.4631" x2="104.707" y2="30.7692" gradientUnits="userSpaceOnUse">
<stop stop-color="#A66FFF"/>
<stop offset="1" stop-color="#7B6FFF"/>
</linearGradient>
<radialGradient id="paint4_radial_2922_61" cx="0" cy="0" r="1" gradientUnits="userSpaceOnUse" gradientTransform="translate(133.189 26.1092) rotate(-155.035) scale(42.273 30.2471)">
<stop stop-color="white" stop-opacity="0.4"/>
<stop offset="1" stop-color="white" stop-opacity="0"/>
</radialGradient>
<linearGradient id="paint5_linear_2922_61" x1="117.117" y1="13.0519" x2="108.791" y2="22.0981" gradientUnits="userSpaceOnUse">
<stop stop-color="#A66FFF"/>
<stop offset="1" stop-color="#7B6FFF"/>
</linearGradient>
<radialGradient id="paint6_radial_2922_61" cx="0" cy="0" r="1" gradientUnits="userSpaceOnUse" gradientTransform="translate(133.212 26.2385) rotate(-164.017) scale(32.9553 36.9791)">
<stop stop-color="white" stop-opacity="0.4"/>
<stop offset="1" stop-color="white" stop-opacity="0"/>
</radialGradient>
<linearGradient id="paint7_linear_2922_61" x1="121.401" y1="16.4285" x2="110.132" y2="27.3819" gradientUnits="userSpaceOnUse">
<stop stop-color="#A66FFF"/>
<stop offset="1" stop-color="#7B6FFF"/>
</linearGradient>
</defs>
</svg>
