<svg width="162" height="52" viewBox="0 0 162 52" fill="none" xmlns="http://www.w3.org/2000/svg">
<path d="M28.9634 43V26.2H32.0354L39.9314 38.032V26.2H43.0034V43H39.9314L32.0354 31.192V43H28.9634ZM51.8073 43.288C50.6073 43.288 49.5433 43.032 48.6153 42.52C47.6873 42.008 46.9593 41.288 46.4313 40.36C45.9033 39.432 45.6393 38.36 45.6393 37.144C45.6393 35.912 45.8953 34.816 46.4073 33.856C46.9353 32.896 47.6553 32.152 48.5673 31.624C49.4953 31.08 50.5833 30.808 51.8313 30.808C52.9993 30.808 54.0313 31.064 54.9273 31.576C55.8233 32.088 56.5193 32.792 57.0153 33.688C57.5273 34.568 57.7833 35.552 57.7833 36.64C57.7833 36.816 57.7753 37 57.7593 37.192C57.7593 37.384 57.7513 37.584 57.7353 37.792H48.6873C48.7513 38.72 49.0713 39.448 49.6473 39.976C50.2393 40.504 50.9513 40.768 51.7833 40.768C52.4073 40.768 52.9273 40.632 53.3433 40.36C53.7753 40.072 54.0953 39.704 54.3033 39.256H57.4233C57.1993 40.008 56.8233 40.696 56.2953 41.32C55.7833 41.928 55.1433 42.408 54.3753 42.76C53.6233 43.112 52.7673 43.288 51.8073 43.288ZM51.8313 33.304C51.0793 33.304 50.4153 33.52 49.8393 33.952C49.2633 34.368 48.8953 35.008 48.7353 35.872H54.6633C54.6153 35.088 54.3273 34.464 53.7993 34C53.2713 33.536 52.6153 33.304 51.8313 33.304ZM58.2537 43L62.5737 37.048L58.2537 31.096H61.5417L64.5657 35.32L67.5657 31.096H70.8777L66.5337 37.048L70.8777 43H67.5657L64.5657 38.776L61.5417 43H58.2537ZM77.9738 43C76.7258 43 75.7258 42.696 74.9738 42.088C74.2218 41.48 73.8458 40.4 73.8458 38.848V33.664H71.8058V31.096H73.8458L74.2058 27.904H76.9178V31.096H80.1338V33.664H76.9178V38.872C76.9178 39.448 77.0378 39.848 77.2778 40.072C77.5338 40.28 77.9658 40.384 78.5738 40.384H80.0618V43H77.9738ZM88.4144 43.288C87.1824 43.288 86.0944 43.08 85.1504 42.664C84.2064 42.232 83.4624 41.624 82.9184 40.84C82.3744 40.04 82.0944 39.072 82.0784 37.936H85.3184C85.3504 38.72 85.6304 39.384 86.1584 39.928C86.7024 40.456 87.4464 40.72 88.3904 40.72C89.2064 40.72 89.8544 40.528 90.3344 40.144C90.8144 39.744 91.0544 39.216 91.0544 38.56C91.0544 37.872 90.8384 37.336 90.4064 36.952C89.9904 36.568 89.4304 36.256 88.7264 36.016C88.0224 35.776 87.2704 35.52 86.4704 35.248C85.1744 34.8 84.1824 34.224 83.4944 33.52C82.8224 32.816 82.4864 31.88 82.4864 30.712C82.4704 29.72 82.7024 28.872 83.1824 28.168C83.6784 27.448 84.3504 26.896 85.1984 26.512C86.0464 26.112 87.0224 25.912 88.1264 25.912C89.2464 25.912 90.2304 26.112 91.0784 26.512C91.9424 26.912 92.6144 27.472 93.0944 28.192C93.5904 28.912 93.8544 29.768 93.8864 30.76H90.5984C90.5824 30.168 90.3504 29.648 89.9024 29.2C89.4704 28.736 88.8624 28.504 88.0784 28.504C87.4064 28.488 86.8384 28.656 86.3744 29.008C85.9264 29.344 85.7024 29.84 85.7024 30.496C85.7024 31.056 85.8784 31.504 86.2304 31.84C86.5824 32.16 87.0624 32.432 87.6704 32.656C88.2784 32.88 88.9744 33.12 89.7584 33.376C90.5904 33.664 91.3504 34 92.0384 34.384C92.7264 34.768 93.2784 35.28 93.6944 35.92C94.1104 36.544 94.3184 37.352 94.3184 38.344C94.3184 39.224 94.0944 40.04 93.6464 40.792C93.1984 41.544 92.5344 42.152 91.6544 42.616C90.7744 43.064 89.6944 43.288 88.4144 43.288ZM102.066 43C100.818 43 99.8177 42.696 99.0657 42.088C98.3137 41.48 97.9377 40.4 97.9377 38.848V33.664H95.8977V31.096H97.9377L98.2977 27.904H101.01V31.096H104.226V33.664H101.01V38.872C101.01 39.448 101.13 39.848 101.37 40.072C101.626 40.28 102.058 40.384 102.666 40.384H104.154V43H102.066ZM112.178 43.288C110.978 43.288 109.914 43.032 108.986 42.52C108.058 42.008 107.33 41.288 106.802 40.36C106.274 39.432 106.01 38.36 106.01 37.144C106.01 35.912 106.266 34.816 106.778 33.856C107.306 32.896 108.026 32.152 108.938 31.624C109.866 31.08 110.954 30.808 112.202 30.808C113.37 30.808 114.402 31.064 115.298 31.576C116.194 32.088 116.89 32.792 117.386 33.688C117.898 34.568 118.154 35.552 118.154 36.64C118.154 36.816 118.146 37 118.13 37.192C118.13 37.384 118.122 37.584 118.106 37.792H109.058C109.122 38.72 109.442 39.448 110.018 39.976C110.61 40.504 111.322 40.768 112.154 40.768C112.778 40.768 113.298 40.632 113.714 40.36C114.146 40.072 114.466 39.704 114.674 39.256H117.794C117.57 40.008 117.194 40.696 116.666 41.32C116.154 41.928 115.514 42.408 114.746 42.76C113.994 43.112 113.138 43.288 112.178 43.288ZM112.202 33.304C111.45 33.304 110.786 33.52 110.21 33.952C109.634 34.368 109.266 35.008 109.106 35.872H115.034C114.986 35.088 114.698 34.464 114.17 34C113.642 33.536 112.986 33.304 112.202 33.304ZM120.572 48.28V31.096H123.308L123.644 32.8C124.028 32.272 124.532 31.808 125.156 31.408C125.796 31.008 126.62 30.808 127.628 30.808C128.748 30.808 129.748 31.08 130.628 31.624C131.508 32.168 132.204 32.912 132.716 33.856C133.228 34.8 133.484 35.872 133.484 37.072C133.484 38.272 133.228 39.344 132.716 40.288C132.204 41.216 131.508 41.952 130.628 42.496C129.748 43.024 128.748 43.288 127.628 43.288C126.732 43.288 125.948 43.12 125.276 42.784C124.604 42.448 124.06 41.976 123.644 41.368V48.28H120.572ZM126.98 40.6C127.956 40.6 128.764 40.272 129.404 39.616C130.044 38.96 130.364 38.112 130.364 37.072C130.364 36.032 130.044 35.176 129.404 34.504C128.764 33.832 127.956 33.496 126.98 33.496C125.988 33.496 125.172 33.832 124.532 34.504C123.908 35.16 123.596 36.008 123.596 37.048C123.596 38.088 123.908 38.944 124.532 39.616C125.172 40.272 125.988 40.6 126.98 40.6Z" fill="white"/>
<path d="M101.291 12.8787L98.7326 21.5473L103.243 15.4858L134.677 26.1038L101.291 12.8787Z" fill="white"/>
<path d="M98.7333 21.547L134.218 26.0085L103.244 15.4856L98.7333 21.547Z" fill="white"/>
<path d="M101.291 12.8787L134.677 26.1038L96.2337 6.75542L101.291 12.8787Z" fill="white"/>
<path d="M107.876 21.8088L134.677 26.1038L103.243 15.4858L107.876 21.8088Z" fill="white"/>
</svg>
