<svg width="264" height="69" viewBox="0 0 264 69" fill="none" xmlns="http://www.w3.org/2000/svg">
<path d="M29.4306 21V1.4H37.2986C39.3332 1.4 40.8826 1.876 41.9466 2.828C43.0292 3.76133 43.5706 4.96533 43.5706 6.44C43.5706 7.672 43.2346 8.66133 42.5626 9.408C41.9092 10.136 41.1066 10.6307 40.1546 10.892C41.2746 11.116 42.1986 11.676 42.9266 12.572C43.6546 13.4493 44.0186 14.476 44.0186 15.652C44.0186 17.2013 43.4586 18.48 42.3386 19.488C41.2186 20.496 39.6319 21 37.5786 21H29.4306ZM33.0146 9.632H36.7666C37.7746 9.632 38.5492 9.39867 39.0906 8.932C39.6319 8.46533 39.9026 7.80267 39.9026 6.944C39.9026 6.12267 39.6319 5.47867 39.0906 5.012C38.5679 4.52667 37.7746 4.284 36.7106 4.284H33.0146V9.632ZM33.0146 18.088H37.0186C38.0826 18.088 38.9039 17.8453 39.4826 17.36C40.0799 16.856 40.3786 16.156 40.3786 15.26C40.3786 14.3453 40.0706 13.6267 39.4546 13.104C38.8386 12.5813 38.0079 12.32 36.9626 12.32H33.0146V18.088ZM53.5096 21.336C52.1656 21.336 50.9523 21.028 49.8696 20.412C48.8056 19.796 47.9563 18.9467 47.3216 17.864C46.7056 16.7627 46.3976 15.4933 46.3976 14.056C46.3976 12.6187 46.715 11.3587 47.3496 10.276C47.9843 9.17467 48.8336 8.316 49.8976 7.7C50.9803 7.084 52.1936 6.776 53.5376 6.776C54.863 6.776 56.0576 7.084 57.1216 7.7C58.2043 8.316 59.0536 9.17467 59.6696 10.276C60.3043 11.3587 60.6216 12.6187 60.6216 14.056C60.6216 15.4933 60.3043 16.7627 59.6696 17.864C59.0536 18.9467 58.2043 19.796 57.1216 20.412C56.039 21.028 54.835 21.336 53.5096 21.336ZM53.5096 18.228C54.443 18.228 55.255 17.8827 55.9456 17.192C56.6363 16.4827 56.9816 15.4373 56.9816 14.056C56.9816 12.6747 56.6363 11.6387 55.9456 10.948C55.255 10.2387 54.4523 9.884 53.5376 9.884C52.5856 9.884 51.7643 10.2387 51.0736 10.948C50.4016 11.6387 50.0656 12.6747 50.0656 14.056C50.0656 15.4373 50.4016 16.4827 51.0736 17.192C51.7643 17.8827 52.5763 18.228 53.5096 18.228ZM69.3022 21C67.8462 21 66.6796 20.6453 65.8022 19.936C64.9249 19.2267 64.4862 17.9667 64.4862 16.156V10.108H62.1062V7.112H64.4862L64.9062 3.388H68.0702V7.112H71.8222V10.108H68.0702V16.184C68.0702 16.856 68.2102 17.3227 68.4902 17.584C68.7889 17.8267 69.2929 17.948 70.0022 17.948H71.7382V21H69.3022ZM74.7344 21V0.839999H78.3184V9.24C78.785 8.47467 79.4104 7.87733 80.1944 7.448C80.997 7 81.9117 6.776 82.9384 6.776C84.6557 6.776 85.981 7.31733 86.9144 8.4C87.8664 9.48267 88.3424 11.0693 88.3424 13.16V21H84.7864V13.496C84.7864 12.3013 84.5437 11.3867 84.0584 10.752C83.5917 10.1173 82.8451 9.8 81.8184 9.8C80.8104 9.8 79.9704 10.1547 79.2984 10.864C78.645 11.5733 78.3184 12.5627 78.3184 13.832V21H74.7344ZM98.1114 21V0.839999H101.695V21H98.1114ZM111.857 21.336C110.513 21.336 109.299 21.028 108.217 20.412C107.153 19.796 106.303 18.9467 105.669 17.864C105.053 16.7627 104.745 15.4933 104.745 14.056C104.745 12.6187 105.062 11.3587 105.697 10.276C106.331 9.17467 107.181 8.316 108.245 7.7C109.327 7.084 110.541 6.776 111.885 6.776C113.21 6.776 114.405 7.084 115.469 7.7C116.551 8.316 117.401 9.17467 118.017 10.276C118.651 11.3587 118.969 12.6187 118.969 14.056C118.969 15.4933 118.651 16.7627 118.017 17.864C117.401 18.9467 116.551 19.796 115.469 20.412C114.386 21.028 113.182 21.336 111.857 21.336ZM111.857 18.228C112.79 18.228 113.602 17.8827 114.293 17.192C114.983 16.4827 115.329 15.4373 115.329 14.056C115.329 12.6747 114.983 11.6387 114.293 10.948C113.602 10.2387 112.799 9.884 111.885 9.884C110.933 9.884 110.111 10.2387 109.421 10.948C108.749 11.6387 108.413 12.6747 108.413 14.056C108.413 15.4373 108.749 16.4827 109.421 17.192C110.111 17.8827 110.923 18.228 111.857 18.228ZM128.672 21.336C127.328 21.336 126.115 21.028 125.032 20.412C123.968 19.796 123.119 18.9467 122.484 17.864C121.868 16.7627 121.56 15.4933 121.56 14.056C121.56 12.6187 121.877 11.3587 122.512 10.276C123.147 9.17467 123.996 8.316 125.06 7.7C126.143 7.084 127.356 6.776 128.7 6.776C130.025 6.776 131.22 7.084 132.284 7.7C133.367 8.316 134.216 9.17467 134.832 10.276C135.467 11.3587 135.784 12.6187 135.784 14.056C135.784 15.4933 135.467 16.7627 134.832 17.864C134.216 18.9467 133.367 19.796 132.284 20.412C131.201 21.028 129.997 21.336 128.672 21.336ZM128.672 18.228C129.605 18.228 130.417 17.8827 131.108 17.192C131.799 16.4827 132.144 15.4373 132.144 14.056C132.144 12.6747 131.799 11.6387 131.108 10.948C130.417 10.2387 129.615 9.884 128.7 9.884C127.748 9.884 126.927 10.2387 126.236 10.948C125.564 11.6387 125.228 12.6747 125.228 14.056C125.228 15.4373 125.564 16.4827 126.236 17.192C126.927 17.8827 127.739 18.228 128.672 18.228ZM138.823 21V0.839999H142.407V12.74L147.335 7.112H151.591L145.907 13.44L152.515 21H148.035L142.407 14.028V21H138.823ZM156.505 4.956C155.851 4.956 155.31 4.76 154.881 4.368C154.47 3.976 154.265 3.48133 154.265 2.884C154.265 2.28667 154.47 1.80133 154.881 1.428C155.31 1.036 155.851 0.839999 156.505 0.839999C157.158 0.839999 157.69 1.036 158.101 1.428C158.53 1.80133 158.745 2.28667 158.745 2.884C158.745 3.48133 158.53 3.976 158.101 4.368C157.69 4.76 157.158 4.956 156.505 4.956ZM154.713 21V7.112H158.297V21H154.713ZM161.872 21V7.112H165.036L165.316 9.464C165.746 8.64267 166.362 7.98933 167.164 7.504C167.986 7.01867 168.947 6.776 170.048 6.776C171.766 6.776 173.1 7.31733 174.052 8.4C175.004 9.48267 175.48 11.0693 175.48 13.16V21H171.896V13.496C171.896 12.3013 171.654 11.3867 171.168 10.752C170.683 10.1173 169.927 9.8 168.9 9.8C167.892 9.8 167.062 10.1547 166.408 10.864C165.774 11.5733 165.456 12.5627 165.456 13.832V21H161.872ZM184.623 16.856C183.951 16.856 183.325 16.7813 182.747 16.632L181.711 17.668C182.028 17.836 182.457 17.976 182.999 18.088C183.54 18.2 184.417 18.312 185.631 18.424C187.479 18.592 188.823 19.0307 189.663 19.74C190.503 20.4493 190.923 21.4293 190.923 22.68C190.923 23.5013 190.699 24.276 190.251 25.004C189.803 25.7507 189.112 26.348 188.179 26.796C187.245 27.2627 186.051 27.496 184.595 27.496C182.616 27.496 181.02 27.1227 179.807 26.376C178.593 25.648 177.987 24.5467 177.987 23.072C177.987 21.8213 178.593 20.7387 179.807 19.824C179.433 19.656 179.107 19.4787 178.827 19.292C178.565 19.1053 178.332 18.9093 178.127 18.704V18.06L180.563 15.484C179.48 14.532 178.939 13.3093 178.939 11.816C178.939 10.8827 179.163 10.0333 179.611 9.268C180.077 8.50267 180.731 7.896 181.571 7.448C182.411 7 183.428 6.776 184.623 6.776C185.407 6.776 186.135 6.888 186.807 7.112H192.071V9.296L189.691 9.464C190.064 10.1733 190.251 10.9573 190.251 11.816C190.251 12.7493 190.027 13.5987 189.579 14.364C189.131 15.1293 188.477 15.736 187.619 16.184C186.779 16.632 185.78 16.856 184.623 16.856ZM184.623 14.112C185.351 14.112 185.948 13.916 186.415 13.524C186.9 13.132 187.143 12.572 187.143 11.844C187.143 11.116 186.9 10.556 186.415 10.164C185.948 9.772 185.351 9.576 184.623 9.576C183.857 9.576 183.241 9.772 182.775 10.164C182.308 10.556 182.075 11.116 182.075 11.844C182.075 12.572 182.308 13.132 182.775 13.524C183.241 13.916 183.857 14.112 184.623 14.112ZM181.263 22.708C181.263 23.3987 181.58 23.912 182.215 24.248C182.868 24.6027 183.661 24.78 184.595 24.78C185.491 24.78 186.219 24.5933 186.779 24.22C187.339 23.8653 187.619 23.38 187.619 22.764C187.619 22.26 187.432 21.84 187.059 21.504C186.704 21.168 185.985 20.9627 184.903 20.888C184.137 20.832 183.428 20.748 182.775 20.636C182.233 20.9347 181.841 21.2613 181.599 21.616C181.375 21.9707 181.263 22.3347 181.263 22.708ZM201.67 21V10.108H199.766V7.112H201.67V5.488C201.67 3.808 202.09 2.61333 202.93 1.904C203.788 1.19467 204.946 0.839999 206.402 0.839999H207.942V3.892H206.962C206.346 3.892 205.907 4.01333 205.646 4.256C205.384 4.49867 205.254 4.90933 205.254 5.488V7.112H208.25V10.108H205.254V21H201.67ZM217.04 21.336C215.696 21.336 214.483 21.028 213.4 20.412C212.336 19.796 211.487 18.9467 210.852 17.864C210.236 16.7627 209.928 15.4933 209.928 14.056C209.928 12.6187 210.246 11.3587 210.88 10.276C211.515 9.17467 212.364 8.316 213.428 7.7C214.511 7.084 215.724 6.776 217.068 6.776C218.394 6.776 219.588 7.084 220.652 7.7C221.735 8.316 222.584 9.17467 223.2 10.276C223.835 11.3587 224.152 12.6187 224.152 14.056C224.152 15.4933 223.835 16.7627 223.2 17.864C222.584 18.9467 221.735 19.796 220.652 20.412C219.57 21.028 218.366 21.336 217.04 21.336ZM217.04 18.228C217.974 18.228 218.786 17.8827 219.476 17.192C220.167 16.4827 220.512 15.4373 220.512 14.056C220.512 12.6747 220.167 11.6387 219.476 10.948C218.786 10.2387 217.983 9.884 217.068 9.884C216.116 9.884 215.295 10.2387 214.604 10.948C213.932 11.6387 213.596 12.6747 213.596 14.056C213.596 15.4373 213.932 16.4827 214.604 17.192C215.295 17.8827 216.107 18.228 217.04 18.228ZM227.192 21V7.112H230.384L230.72 9.716C231.224 8.82 231.905 8.11067 232.764 7.588C233.641 7.04667 234.668 6.776 235.844 6.776V10.556H234.836C234.052 10.556 233.352 10.6773 232.736 10.92C232.12 11.1627 231.635 11.5827 231.28 12.18C230.944 12.7773 230.776 13.608 230.776 14.672V21H227.192ZM17.0862 55.336C15.8915 55.336 14.9115 55.1493 14.1462 54.776C13.3809 54.384 12.8115 53.8707 12.4382 53.236C12.0649 52.6013 11.8782 51.9013 11.8782 51.136C11.8782 49.848 12.3822 48.8027 13.3902 48C14.3982 47.1973 15.9102 46.796 17.9262 46.796H21.4542V46.46C21.4542 45.508 21.1835 44.808 20.6422 44.36C20.1009 43.912 19.4289 43.688 18.6262 43.688C17.8982 43.688 17.2635 43.8653 16.7222 44.22C16.1809 44.556 15.8449 45.06 15.7142 45.732H12.2142C12.3075 44.724 12.6435 43.8467 13.2222 43.1C13.8195 42.3533 14.5849 41.784 15.5182 41.392C16.4515 40.9813 17.4969 40.776 18.6542 40.776C20.6329 40.776 22.1915 41.2707 23.3302 42.26C24.4689 43.2493 25.0382 44.6493 25.0382 46.46V55H21.9862L21.6502 52.76C21.2395 53.5067 20.6609 54.1227 19.9142 54.608C19.1862 55.0933 18.2435 55.336 17.0862 55.336ZM17.8982 52.536C18.9249 52.536 19.7182 52.2 20.2782 51.528C20.8569 50.856 21.2209 50.0253 21.3702 49.036H18.3182C17.3662 49.036 16.6849 49.2133 16.2742 49.568C15.8635 49.904 15.6582 50.324 15.6582 50.828C15.6582 51.3693 15.8635 51.7893 16.2742 52.088C16.6849 52.3867 17.2262 52.536 17.8982 52.536ZM43.0322 55.336C41.9869 55.336 41.0722 55.14 40.2882 54.748C39.5042 54.356 38.8696 53.8053 38.3842 53.096L37.9922 55H34.8002V34.84H38.3842V43.1C38.8322 42.484 39.4202 41.9427 40.1482 41.476C40.8949 41.0093 41.8562 40.776 43.0322 40.776C44.3389 40.776 45.5056 41.0933 46.5322 41.728C47.5589 42.3627 48.3709 43.2307 48.9682 44.332C49.5656 45.4333 49.8642 46.684 49.8642 48.084C49.8642 49.484 49.5656 50.7347 48.9682 51.836C48.3709 52.9187 47.5589 53.7773 46.5322 54.412C45.5056 55.028 44.3389 55.336 43.0322 55.336ZM42.2762 52.2C43.4149 52.2 44.3576 51.8173 45.1042 51.052C45.8509 50.2867 46.2242 49.2973 46.2242 48.084C46.2242 46.8707 45.8509 45.872 45.1042 45.088C44.3576 44.304 43.4149 43.912 42.2762 43.912C41.1189 43.912 40.1669 44.304 39.4202 45.088C38.6922 45.8533 38.3282 46.8427 38.3282 48.056C38.3282 49.2693 38.6922 50.268 39.4202 51.052C40.1669 51.8173 41.1189 52.2 42.2762 52.2ZM58.1089 55.336C56.3729 55.336 55.0289 54.7947 54.0769 53.712C53.1435 52.6293 52.6769 51.0427 52.6769 48.952V41.112H56.2329V48.616C56.2329 49.8107 56.4755 50.7253 56.9609 51.36C57.4462 51.9947 58.2115 52.312 59.2569 52.312C60.2462 52.312 61.0582 51.9573 61.6929 51.248C62.3462 50.5387 62.6729 49.5493 62.6729 48.28V41.112H66.2569V55H63.0929L62.8129 52.648C62.3835 53.4693 61.7582 54.1227 60.9369 54.608C60.1342 55.0933 59.1915 55.336 58.1089 55.336ZM75.511 55.336C74.279 55.336 73.1964 55.14 72.263 54.748C71.3297 54.3373 70.583 53.7773 70.023 53.068C69.463 52.3587 69.127 51.5373 69.015 50.604H72.627C72.739 51.1453 73.0377 51.612 73.523 52.004C74.027 52.3773 74.671 52.564 75.455 52.564C76.239 52.564 76.8084 52.4053 77.163 52.088C77.5364 51.7707 77.723 51.4067 77.723 50.996C77.723 50.3987 77.4617 49.9973 76.939 49.792C76.4164 49.568 75.6884 49.3533 74.755 49.148C74.1577 49.0173 73.551 48.8587 72.935 48.672C72.319 48.4853 71.7497 48.252 71.227 47.972C70.723 47.6733 70.3124 47.3 69.995 46.852C69.6777 46.3853 69.519 45.816 69.519 45.144C69.519 43.912 70.0044 42.876 70.975 42.036C71.9644 41.196 73.3457 40.776 75.119 40.776C76.7617 40.776 78.0684 41.1587 79.039 41.924C80.0284 42.6893 80.6164 43.744 80.803 45.088H77.415C77.2097 44.0613 76.435 43.548 75.091 43.548C74.419 43.548 73.8964 43.6787 73.523 43.94C73.1684 44.2013 72.991 44.528 72.991 44.92C72.991 45.3307 73.2617 45.6573 73.803 45.9C74.3444 46.1427 75.063 46.3667 75.959 46.572C76.9297 46.796 77.8164 47.048 78.619 47.328C79.4404 47.5893 80.0937 47.9907 80.579 48.532C81.0644 49.0547 81.307 49.8107 81.307 50.8C81.3257 51.6587 81.1017 52.4333 80.635 53.124C80.1684 53.8147 79.4964 54.356 78.619 54.748C77.7417 55.14 76.7057 55.336 75.511 55.336ZM86.249 38.956C85.5956 38.956 85.0543 38.76 84.625 38.368C84.2143 37.976 84.009 37.4813 84.009 36.884C84.009 36.2867 84.2143 35.8013 84.625 35.428C85.0543 35.036 85.5956 34.84 86.249 34.84C86.9023 34.84 87.4343 35.036 87.845 35.428C88.2743 35.8013 88.489 36.2867 88.489 36.884C88.489 37.4813 88.2743 37.976 87.845 38.368C87.4343 38.76 86.9023 38.956 86.249 38.956ZM84.457 55V41.112H88.041V55H84.457ZM91.6168 55V41.112H94.7808L95.0608 43.464C95.4901 42.6427 96.1061 41.9893 96.9088 41.504C97.7301 41.0187 98.6915 40.776 99.7928 40.776C101.51 40.776 102.845 41.3173 103.797 42.4C104.749 43.4827 105.225 45.0693 105.225 47.16V55H101.641V47.496C101.641 46.3013 101.398 45.3867 100.913 44.752C100.427 44.1173 99.6715 43.8 98.6448 43.8C97.6368 43.8 96.8061 44.1547 96.1528 44.864C95.5181 45.5733 95.2008 46.5627 95.2008 47.832V55H91.6168ZM115.235 55.336C113.835 55.336 112.594 55.0373 111.511 54.44C110.428 53.8427 109.579 53.0027 108.963 51.92C108.347 50.8373 108.039 49.5867 108.039 48.168C108.039 46.7307 108.338 45.452 108.935 44.332C109.551 43.212 110.391 42.344 111.455 41.728C112.538 41.0933 113.807 40.776 115.263 40.776C116.626 40.776 117.83 41.0747 118.875 41.672C119.92 42.2693 120.732 43.0907 121.311 44.136C121.908 45.1627 122.207 46.3107 122.207 47.58C122.207 47.7853 122.198 48 122.179 48.224C122.179 48.448 122.17 48.6813 122.151 48.924H111.595C111.67 50.0067 112.043 50.856 112.715 51.472C113.406 52.088 114.236 52.396 115.207 52.396C115.935 52.396 116.542 52.2373 117.027 51.92C117.531 51.584 117.904 51.1547 118.147 50.632H121.787C121.526 51.5093 121.087 52.312 120.471 53.04C119.874 53.7493 119.127 54.3093 118.231 54.72C117.354 55.1307 116.355 55.336 115.235 55.336ZM115.263 43.688C114.386 43.688 113.611 43.94 112.939 44.444C112.267 44.9293 111.838 45.676 111.651 46.684H118.567C118.511 45.7693 118.175 45.0413 117.559 44.5C116.943 43.9587 116.178 43.688 115.263 43.688ZM130.796 55.336C129.564 55.336 128.482 55.14 127.548 54.748C126.615 54.3373 125.868 53.7773 125.308 53.068C124.748 52.3587 124.412 51.5373 124.3 50.604H127.912C128.024 51.1453 128.323 51.612 128.808 52.004C129.312 52.3773 129.956 52.564 130.74 52.564C131.524 52.564 132.094 52.4053 132.448 52.088C132.822 51.7707 133.008 51.4067 133.008 50.996C133.008 50.3987 132.747 49.9973 132.224 49.792C131.702 49.568 130.974 49.3533 130.04 49.148C129.443 49.0173 128.836 48.8587 128.22 48.672C127.604 48.4853 127.035 48.252 126.512 47.972C126.008 47.6733 125.598 47.3 125.28 46.852C124.963 46.3853 124.804 45.816 124.804 45.144C124.804 43.912 125.29 42.876 126.26 42.036C127.25 41.196 128.631 40.776 130.404 40.776C132.047 40.776 133.354 41.1587 134.324 41.924C135.314 42.6893 135.902 43.744 136.088 45.088H132.7C132.495 44.0613 131.72 43.548 130.376 43.548C129.704 43.548 129.182 43.6787 128.808 43.94C128.454 44.2013 128.276 44.528 128.276 44.92C128.276 45.3307 128.547 45.6573 129.088 45.9C129.63 46.1427 130.348 46.3667 131.244 46.572C132.215 46.796 133.102 47.048 133.904 47.328C134.726 47.5893 135.379 47.9907 135.864 48.532C136.35 49.0547 136.592 49.8107 136.592 50.8C136.611 51.6587 136.387 52.4333 135.92 53.124C135.454 53.8147 134.782 54.356 133.904 54.748C133.027 55.14 131.991 55.336 130.796 55.336ZM145.342 55.336C144.11 55.336 143.028 55.14 142.094 54.748C141.161 54.3373 140.414 53.7773 139.854 53.068C139.294 52.3587 138.958 51.5373 138.846 50.604H142.458C142.57 51.1453 142.869 51.612 143.354 52.004C143.858 52.3773 144.502 52.564 145.286 52.564C146.07 52.564 146.64 52.4053 146.994 52.088C147.368 51.7707 147.554 51.4067 147.554 50.996C147.554 50.3987 147.293 49.9973 146.77 49.792C146.248 49.568 145.52 49.3533 144.586 49.148C143.989 49.0173 143.382 48.8587 142.766 48.672C142.15 48.4853 141.581 48.252 141.058 47.972C140.554 47.6733 140.144 47.3 139.826 46.852C139.509 46.3853 139.35 45.816 139.35 45.144C139.35 43.912 139.836 42.876 140.806 42.036C141.796 41.196 143.177 40.776 144.95 40.776C146.593 40.776 147.9 41.1587 148.87 41.924C149.86 42.6893 150.448 43.744 150.634 45.088H147.246C147.041 44.0613 146.266 43.548 144.922 43.548C144.25 43.548 143.728 43.6787 143.354 43.94C143 44.2013 142.822 44.528 142.822 44.92C142.822 45.3307 143.093 45.6573 143.634 45.9C144.176 46.1427 144.894 46.3667 145.79 46.572C146.761 46.796 147.648 47.048 148.45 47.328C149.272 47.5893 149.925 47.9907 150.41 48.532C150.896 49.0547 151.138 49.8107 151.138 50.8C151.157 51.6587 150.933 52.4333 150.466 53.124C150 53.8147 149.328 54.356 148.45 54.748C147.573 55.14 146.537 55.336 145.342 55.336ZM160.655 61.16V41.112H163.847L164.239 43.1C164.687 42.484 165.275 41.9427 166.003 41.476C166.75 41.0093 167.711 40.776 168.887 40.776C170.194 40.776 171.36 41.0933 172.387 41.728C173.414 42.3627 174.226 43.2307 174.823 44.332C175.42 45.4333 175.719 46.684 175.719 48.084C175.719 49.484 175.42 50.7347 174.823 51.836C174.226 52.9187 173.414 53.7773 172.387 54.412C171.36 55.028 170.194 55.336 168.887 55.336C167.842 55.336 166.927 55.14 166.143 54.748C165.359 54.356 164.724 53.8053 164.239 53.096V61.16H160.655ZM168.131 52.2C169.27 52.2 170.212 51.8173 170.959 51.052C171.706 50.2867 172.079 49.2973 172.079 48.084C172.079 46.8707 171.706 45.872 170.959 45.088C170.212 44.304 169.27 43.912 168.131 43.912C166.974 43.912 166.022 44.304 165.275 45.088C164.547 45.8533 164.183 46.8427 164.183 48.056C164.183 49.2693 164.547 50.268 165.275 51.052C166.022 51.8173 166.974 52.2 168.131 52.2ZM183.544 55.336C182.349 55.336 181.369 55.1493 180.604 54.776C179.838 54.384 179.269 53.8707 178.896 53.236C178.522 52.6013 178.336 51.9013 178.336 51.136C178.336 49.848 178.84 48.8027 179.848 48C180.856 47.1973 182.368 46.796 184.384 46.796H187.912V46.46C187.912 45.508 187.641 44.808 187.1 44.36C186.558 43.912 185.886 43.688 185.084 43.688C184.356 43.688 183.721 43.8653 183.18 44.22C182.638 44.556 182.302 45.06 182.172 45.732H178.672C178.765 44.724 179.101 43.8467 179.68 43.1C180.277 42.3533 181.042 41.784 181.976 41.392C182.909 40.9813 183.954 40.776 185.112 40.776C187.09 40.776 188.649 41.2707 189.788 42.26C190.926 43.2493 191.496 44.6493 191.496 46.46V55H188.444L188.108 52.76C187.697 53.5067 187.118 54.1227 186.372 54.608C185.644 55.0933 184.701 55.336 183.544 55.336ZM184.356 52.536C185.382 52.536 186.176 52.2 186.736 51.528C187.314 50.856 187.678 50.0253 187.828 49.036H184.776C183.824 49.036 183.142 49.2133 182.732 49.568C182.321 49.904 182.116 50.324 182.116 50.828C182.116 51.3693 182.321 51.7893 182.732 52.088C183.142 52.3867 183.684 52.536 184.356 52.536ZM194.751 55V41.112H197.943L198.279 43.716C198.783 42.82 199.464 42.1107 200.323 41.588C201.2 41.0467 202.227 40.776 203.403 40.776V44.556H202.395C201.611 44.556 200.911 44.6773 200.295 44.92C199.679 45.1627 199.194 45.5827 198.839 46.18C198.503 46.7773 198.335 47.608 198.335 48.672V55H194.751ZM211.875 55C210.419 55 209.253 54.6453 208.375 53.936C207.498 53.2267 207.059 51.9667 207.059 50.156V44.108H204.679V41.112H207.059L207.479 37.388H210.643V41.112H214.395V44.108H210.643V50.184C210.643 50.856 210.783 51.3227 211.063 51.584C211.362 51.8267 211.866 51.948 212.575 51.948H214.311V55H211.875ZM217.308 55V41.112H220.472L220.752 43.464C221.181 42.6427 221.797 41.9893 222.6 41.504C223.421 41.0187 224.382 40.776 225.484 40.776C227.201 40.776 228.536 41.3173 229.488 42.4C230.44 43.4827 230.916 45.0693 230.916 47.16V55H227.332V47.496C227.332 46.3013 227.089 45.3867 226.604 44.752C226.118 44.1173 225.362 43.8 224.336 43.8C223.328 43.8 222.497 44.1547 221.844 44.864C221.209 45.5733 220.892 46.5627 220.892 47.832V55H217.308ZM240.926 55.336C239.526 55.336 238.284 55.0373 237.202 54.44C236.119 53.8427 235.27 53.0027 234.654 51.92C234.038 50.8373 233.73 49.5867 233.73 48.168C233.73 46.7307 234.028 45.452 234.626 44.332C235.242 43.212 236.082 42.344 237.146 41.728C238.228 41.0933 239.498 40.776 240.954 40.776C242.316 40.776 243.52 41.0747 244.566 41.672C245.611 42.2693 246.423 43.0907 247.002 44.136C247.599 45.1627 247.898 46.3107 247.898 47.58C247.898 47.7853 247.888 48 247.87 48.224C247.87 48.448 247.86 48.6813 247.842 48.924H237.286C237.36 50.0067 237.734 50.856 238.406 51.472C239.096 52.088 239.927 52.396 240.898 52.396C241.626 52.396 242.232 52.2373 242.718 51.92C243.222 51.584 243.595 51.1547 243.838 50.632H247.478C247.216 51.5093 246.778 52.312 246.162 53.04C245.564 53.7493 244.818 54.3093 243.922 54.72C243.044 55.1307 242.046 55.336 240.926 55.336ZM240.954 43.688C240.076 43.688 239.302 43.94 238.63 44.444C237.958 44.9293 237.528 45.676 237.342 46.684H244.258C244.202 45.7693 243.866 45.0413 243.25 44.5C242.634 43.9587 241.868 43.688 240.954 43.688ZM250.747 55V41.112H253.939L254.275 43.716C254.779 42.82 255.46 42.1107 256.319 41.588C257.196 41.0467 258.223 40.776 259.399 40.776V44.556H258.391C257.607 44.556 256.907 44.6773 256.291 44.92C255.675 45.1627 255.19 45.5827 254.835 46.18C254.499 46.7773 254.331 47.608 254.331 48.672V55H250.747Z" fill="white"/>
<path d="M38.005 66.9183L252.868 64" stroke="white" stroke-width="3" stroke-linecap="round"/>
</svg>
