<svg width="28" height="28" viewBox="0 0 28 28" fill="none" xmlns="http://www.w3.org/2000/svg">
<path fill-rule="evenodd" clip-rule="evenodd" d="M18.6668 10.5C18.6668 11.7377 18.1752 12.9247 17.3 13.7999C16.4248 14.675 15.2378 15.1667 14.0002 15.1667C12.7625 15.1667 11.5755 14.675 10.7003 13.7999C9.82516 12.9247 9.3335 11.7377 9.3335 10.5C9.3335 9.26236 9.82516 8.07538 10.7003 7.20021C11.5755 6.32504 12.7625 5.83337 14.0002 5.83337C15.2378 5.83337 16.4248 6.32504 17.3 7.20021C18.1752 8.07538 18.6668 9.26236 18.6668 10.5ZM16.3335 10.5C16.3335 11.1189 16.0877 11.7124 15.6501 12.15C15.2125 12.5875 14.619 12.8334 14.0002 12.8334C13.3813 12.8334 12.7878 12.5875 12.3502 12.15C11.9127 11.7124 11.6668 11.1189 11.6668 10.5C11.6668 9.8812 11.9127 9.28771 12.3502 8.85013C12.7878 8.41254 13.3813 8.16671 14.0002 8.16671C14.619 8.16671 15.2125 8.41254 15.6501 8.85013C16.0877 9.28771 16.3335 9.8812 16.3335 10.5Z" fill="url(#paint0_radial_2792_86)"/>
<path fill-rule="evenodd" clip-rule="evenodd" d="M18.6668 10.5C18.6668 11.7377 18.1752 12.9247 17.3 13.7999C16.4248 14.675 15.2378 15.1667 14.0002 15.1667C12.7625 15.1667 11.5755 14.675 10.7003 13.7999C9.82516 12.9247 9.3335 11.7377 9.3335 10.5C9.3335 9.26236 9.82516 8.07538 10.7003 7.20021C11.5755 6.32504 12.7625 5.83337 14.0002 5.83337C15.2378 5.83337 16.4248 6.32504 17.3 7.20021C18.1752 8.07538 18.6668 9.26236 18.6668 10.5ZM16.3335 10.5C16.3335 11.1189 16.0877 11.7124 15.6501 12.15C15.2125 12.5875 14.619 12.8334 14.0002 12.8334C13.3813 12.8334 12.7878 12.5875 12.3502 12.15C11.9127 11.7124 11.6668 11.1189 11.6668 10.5C11.6668 9.8812 11.9127 9.28771 12.3502 8.85013C12.7878 8.41254 13.3813 8.16671 14.0002 8.16671C14.619 8.16671 15.2125 8.41254 15.6501 8.85013C16.0877 9.28771 16.3335 9.8812 16.3335 10.5Z" fill="url(#paint1_linear_2792_86)"/>
<path fill-rule="evenodd" clip-rule="evenodd" d="M14.0001 1.16669C6.91258 1.16669 1.16675 6.91252 1.16675 14C1.16675 21.0875 6.91258 26.8334 14.0001 26.8334C21.0876 26.8334 26.8334 21.0875 26.8334 14C26.8334 6.91252 21.0876 1.16669 14.0001 1.16669ZM3.50008 14C3.50008 16.4384 4.33191 18.683 5.72608 20.4657C6.70518 19.1799 7.9683 18.1379 9.41675 17.4211C10.8652 16.7042 12.4598 16.332 14.0759 16.3334C15.6711 16.3318 17.2456 16.6945 18.6795 17.3936C20.1134 18.0927 21.3687 19.1099 22.3499 20.3677C23.3608 19.0419 24.0414 17.4944 24.3355 15.8534C24.6295 14.2123 24.5286 12.5248 24.041 10.9305C23.5534 9.33619 22.6932 7.88091 21.5315 6.68506C20.3698 5.48922 18.94 4.58719 17.3605 4.05361C15.781 3.52004 14.0971 3.37025 12.4483 3.61666C10.7994 3.86306 9.23284 4.49856 7.87831 5.47058C6.52379 6.44261 5.42019 7.7232 4.65885 9.20642C3.8975 10.6896 3.50029 12.3328 3.50008 14ZM14.0001 24.5C11.5897 24.5036 9.25206 23.6744 7.38275 22.1527C8.13517 21.0755 9.13664 20.1961 10.302 19.5892C11.4673 18.9822 12.762 18.6658 14.0759 18.6667C15.3734 18.6656 16.6525 18.9742 17.8068 19.5667C18.9612 20.1592 19.9575 21.0185 20.7131 22.0734C18.8293 23.6445 16.4531 24.5035 14.0001 24.5Z" fill="url(#paint2_radial_2792_86)"/>
<path fill-rule="evenodd" clip-rule="evenodd" d="M14.0001 1.16669C6.91258 1.16669 1.16675 6.91252 1.16675 14C1.16675 21.0875 6.91258 26.8334 14.0001 26.8334C21.0876 26.8334 26.8334 21.0875 26.8334 14C26.8334 6.91252 21.0876 1.16669 14.0001 1.16669ZM3.50008 14C3.50008 16.4384 4.33191 18.683 5.72608 20.4657C6.70518 19.1799 7.9683 18.1379 9.41675 17.4211C10.8652 16.7042 12.4598 16.332 14.0759 16.3334C15.6711 16.3318 17.2456 16.6945 18.6795 17.3936C20.1134 18.0927 21.3687 19.1099 22.3499 20.3677C23.3608 19.0419 24.0414 17.4944 24.3355 15.8534C24.6295 14.2123 24.5286 12.5248 24.041 10.9305C23.5534 9.33619 22.6932 7.88091 21.5315 6.68506C20.3698 5.48922 18.94 4.58719 17.3605 4.05361C15.781 3.52004 14.0971 3.37025 12.4483 3.61666C10.7994 3.86306 9.23284 4.49856 7.87831 5.47058C6.52379 6.44261 5.42019 7.7232 4.65885 9.20642C3.8975 10.6896 3.50029 12.3328 3.50008 14ZM14.0001 24.5C11.5897 24.5036 9.25206 23.6744 7.38275 22.1527C8.13517 21.0755 9.13664 20.1961 10.302 19.5892C11.4673 18.9822 12.762 18.6658 14.0759 18.6667C15.3734 18.6656 16.6525 18.9742 17.8068 19.5667C18.9612 20.1592 19.9575 21.0185 20.7131 22.0734C18.8293 23.6445 16.4531 24.5035 14.0001 24.5Z" fill="url(#paint3_linear_2792_86)"/>
<defs>
<radialGradient id="paint0_radial_2792_86" cx="0" cy="0" r="1" gradientUnits="userSpaceOnUse" gradientTransform="translate(9.41745 6.11106) rotate(44.0741) scale(12.6749 20.2717)">
<stop stop-color="white" stop-opacity="0.4"/>
<stop offset="1" stop-color="white" stop-opacity="0"/>
</radialGradient>
<linearGradient id="paint1_linear_2792_86" x1="14.0002" y1="5.83337" x2="17.2027" y2="16.0221" gradientUnits="userSpaceOnUse">
<stop stop-color="#A66FFF"/>
<stop offset="1" stop-color="#7B6FFF"/>
</linearGradient>
<radialGradient id="paint2_radial_2792_86" cx="0" cy="0" r="1" gradientUnits="userSpaceOnUse" gradientTransform="translate(1.39761 1.93032) rotate(44.0741) scale(34.856 55.7472)">
<stop stop-color="white" stop-opacity="0.4"/>
<stop offset="1" stop-color="white" stop-opacity="0"/>
</radialGradient>
<linearGradient id="paint3_linear_2792_86" x1="14.0001" y1="1.16669" x2="22.8071" y2="29.1855" gradientUnits="userSpaceOnUse">
<stop stop-color="#A66FFF"/>
<stop offset="1" stop-color="#7B6FFF"/>
</linearGradient>
</defs>
</svg>
