<svg width="290" height="102" viewBox="0 0 290 102" fill="none" xmlns="http://www.w3.org/2000/svg">
<g filter="url(#filter0_f_2880_749)">
<rect x="40" y="40" width="210" height="22" rx="11" fill="url(#paint0_radial_2880_749)"/>
<rect x="40" y="40" width="210" height="22" rx="11" fill="url(#paint1_linear_2880_749)"/>
</g>
<rect x="25" y="17" width="240" height="43" rx="21.5" fill="url(#paint2_radial_2880_749)"/>
<rect x="25" y="17" width="240" height="43" rx="21.5" fill="url(#paint3_linear_2880_749)"/>
<path d="M110.113 43.084C109.529 43.084 109.001 42.984 108.529 42.784C108.065 42.584 107.697 42.296 107.425 41.92C107.153 41.544 107.013 41.1 107.005 40.588H108.805C108.829 40.932 108.949 41.204 109.165 41.404C109.389 41.604 109.693 41.704 110.077 41.704C110.469 41.704 110.777 41.612 111.001 41.428C111.225 41.236 111.337 40.988 111.337 40.684C111.337 40.436 111.261 40.232 111.109 40.072C110.957 39.912 110.765 39.788 110.533 39.7C110.309 39.604 109.997 39.5 109.597 39.388C109.053 39.228 108.609 39.072 108.265 38.92C107.929 38.76 107.637 38.524 107.389 38.212C107.149 37.892 107.029 37.468 107.029 36.94C107.029 36.444 107.153 36.012 107.401 35.644C107.649 35.276 107.997 34.996 108.445 34.804C108.893 34.604 109.405 34.504 109.981 34.504C110.845 34.504 111.545 34.716 112.081 35.14C112.625 35.556 112.925 36.14 112.981 36.892H111.133C111.117 36.604 110.993 36.368 110.761 36.184C110.537 35.992 110.237 35.896 109.861 35.896C109.533 35.896 109.269 35.98 109.069 36.148C108.877 36.316 108.781 36.56 108.781 36.88C108.781 37.104 108.853 37.292 108.997 37.444C109.149 37.588 109.333 37.708 109.549 37.804C109.773 37.892 110.085 37.996 110.485 38.116C111.029 38.276 111.473 38.436 111.817 38.596C112.161 38.756 112.457 38.996 112.705 39.316C112.953 39.636 113.077 40.056 113.077 40.576C113.077 41.024 112.961 41.44 112.729 41.824C112.497 42.208 112.157 42.516 111.709 42.748C111.261 42.972 110.729 43.084 110.113 43.084ZM115.974 34.624V43H114.294V34.624H115.974ZM123.226 37.144C123.034 36.792 122.77 36.524 122.434 36.34C122.098 36.156 121.706 36.064 121.258 36.064C120.762 36.064 120.322 36.176 119.938 36.4C119.554 36.624 119.254 36.944 119.038 37.36C118.822 37.776 118.714 38.256 118.714 38.8C118.714 39.36 118.822 39.848 119.038 40.264C119.262 40.68 119.57 41 119.962 41.224C120.354 41.448 120.81 41.56 121.33 41.56C121.97 41.56 122.494 41.392 122.902 41.056C123.31 40.712 123.578 40.236 123.706 39.628H120.826V38.344H125.362V39.808C125.25 40.392 125.01 40.932 124.642 41.428C124.274 41.924 123.798 42.324 123.214 42.628C122.638 42.924 121.99 43.072 121.27 43.072C120.462 43.072 119.73 42.892 119.074 42.532C118.426 42.164 117.914 41.656 117.538 41.008C117.17 40.36 116.986 39.624 116.986 38.8C116.986 37.976 117.17 37.24 117.538 36.592C117.914 35.936 118.426 35.428 119.074 35.068C119.73 34.7 120.458 34.516 121.258 34.516C122.202 34.516 123.022 34.748 123.718 35.212C124.414 35.668 124.894 36.312 125.158 37.144H123.226ZM133.529 43H131.849L128.045 37.252V43H126.365V34.612H128.045L131.849 40.372V34.612H133.529V43ZM139.224 34.624V39.808C139.224 40.376 139.372 40.812 139.668 41.116C139.964 41.412 140.38 41.56 140.916 41.56C141.46 41.56 141.88 41.412 142.176 41.116C142.472 40.812 142.62 40.376 142.62 39.808V34.624H144.312V39.796C144.312 40.508 144.156 41.112 143.844 41.608C143.54 42.096 143.128 42.464 142.608 42.712C142.096 42.96 141.524 43.084 140.892 43.084C140.268 43.084 139.7 42.96 139.188 42.712C138.684 42.464 138.284 42.096 137.988 41.608C137.692 41.112 137.544 40.508 137.544 39.796V34.624H139.224ZM151.803 37.216C151.803 37.664 151.695 38.084 151.479 38.476C151.271 38.868 150.939 39.184 150.483 39.424C150.035 39.664 149.467 39.784 148.779 39.784H147.375V43H145.695V34.624H148.779C149.427 34.624 149.979 34.736 150.435 34.96C150.891 35.184 151.231 35.492 151.455 35.884C151.687 36.276 151.803 36.72 151.803 37.216ZM148.707 38.428C149.171 38.428 149.515 38.324 149.739 38.116C149.963 37.9 150.075 37.6 150.075 37.216C150.075 36.4 149.619 35.992 148.707 35.992H147.375V38.428H148.707ZM162.54 43H160.86L157.056 37.252V43H155.376V34.612H157.056L160.86 40.372V34.612H162.54V43ZM167.848 43.084C167.064 43.084 166.344 42.9 165.688 42.532C165.032 42.164 164.512 41.656 164.128 41.008C163.744 40.352 163.552 39.612 163.552 38.788C163.552 37.972 163.744 37.24 164.128 36.592C164.512 35.936 165.032 35.424 165.688 35.056C166.344 34.688 167.064 34.504 167.848 34.504C168.64 34.504 169.36 34.688 170.008 35.056C170.664 35.424 171.18 35.936 171.556 36.592C171.94 37.24 172.132 37.972 172.132 38.788C172.132 39.612 171.94 40.352 171.556 41.008C171.18 41.656 170.664 42.164 170.008 42.532C169.352 42.9 168.632 43.084 167.848 43.084ZM167.848 41.584C168.352 41.584 168.796 41.472 169.18 41.248C169.564 41.016 169.864 40.688 170.08 40.264C170.296 39.84 170.404 39.348 170.404 38.788C170.404 38.228 170.296 37.74 170.08 37.324C169.864 36.9 169.564 36.576 169.18 36.352C168.796 36.128 168.352 36.016 167.848 36.016C167.344 36.016 166.896 36.128 166.504 36.352C166.12 36.576 165.82 36.9 165.604 37.324C165.388 37.74 165.28 38.228 165.28 38.788C165.28 39.348 165.388 39.84 165.604 40.264C165.82 40.688 166.12 41.016 166.504 41.248C166.896 41.472 167.344 41.584 167.848 41.584ZM184.338 34.624L181.998 43H180.018L178.446 37.036L176.802 43L174.834 43.012L172.578 34.624H174.378L175.854 41.128L177.558 34.624H179.43L181.038 41.092L182.526 34.624H184.338Z" fill="white"/>
<defs>
<filter id="filter0_f_2880_749" x="0" y="0" width="290" height="102" filterUnits="userSpaceOnUse" color-interpolation-filters="sRGB">
<feFlood flood-opacity="0" result="BackgroundImageFix"/>
<feBlend mode="normal" in="SourceGraphic" in2="BackgroundImageFix" result="shape"/>
<feGaussianBlur stdDeviation="20" result="effect1_foregroundBlur_2880_749"/>
</filter>
<radialGradient id="paint0_radial_2880_749" cx="0" cy="0" r="1" gradientUnits="userSpaceOnUse" gradientTransform="translate(41.8889 40.6545) rotate(5.79169) scale(205.94 66.1703)">
<stop stop-color="white" stop-opacity="0.4"/>
<stop offset="1" stop-color="white" stop-opacity="0"/>
</radialGradient>
<linearGradient id="paint1_linear_2880_749" x1="145" y1="40" x2="145.868" y2="66.3604" gradientUnits="userSpaceOnUse">
<stop stop-color="#A66FFF"/>
<stop offset="1" stop-color="#7B6FFF"/>
</linearGradient>
<radialGradient id="paint2_radial_2880_749" cx="0" cy="0" r="1" gradientUnits="userSpaceOnUse" gradientTransform="translate(27.1587 18.2793) rotate(9.84105) scale(237.656 128.084)">
<stop stop-color="white" stop-opacity="0.4"/>
<stop offset="1" stop-color="white" stop-opacity="0"/>
</radialGradient>
<linearGradient id="paint3_linear_2880_749" x1="145" y1="17" x2="147.896" y2="68.4154" gradientUnits="userSpaceOnUse">
<stop stop-color="#A66FFF"/>
<stop offset="1" stop-color="#7B6FFF"/>
</linearGradient>
</defs>
</svg>
